<svg width="164" height="40" viewBox="0 0 164 40" fill="none" xmlns="http://www.w3.org/2000/svg">
<rect y="0.170593" width="164" height="39.3128" rx="10" fill="#03318C"/>
<g filter="url(#filter0_d_129_2)">
<path d="M24.818 24.656C24.818 23.8453 24.5727 23.1307 24.082 22.512C23.6127 21.9573 23.378 21.648 23.378 21.584C23.378 21.264 23.8473 21.104 24.786 21.104C24.978 21.104 25.2447 21.1147 25.586 21.136C25.9487 21.1573 26.3007 21.2107 26.642 21.296C26.9833 21.3813 27.2713 21.5093 27.506 21.68C27.762 21.8507 27.89 22.0853 27.89 22.384V22.704C27.89 24.112 27.794 25.36 27.602 26.448C27.5167 26.9813 27.4313 27.4293 27.346 27.792C27.2607 28.1333 27.1327 28.4213 26.962 28.656C26.8127 28.8693 26.61 29.0507 26.354 29.2C26.1193 29.328 25.7887 29.456 25.362 29.584C23.9967 30.032 22.802 30.256 21.778 30.256H21.298C19.954 30.256 18.7487 30.0107 17.682 29.52C16.6367 29.008 15.7407 28.3253 14.994 27.472C14.2687 26.5973 13.7033 25.5947 13.298 24.464C12.914 23.3333 12.722 22.128 12.722 20.848V20.304C12.722 18.96 12.9247 17.7013 13.33 16.528C13.7353 15.3333 14.3113 14.2987 15.058 13.424C15.826 12.528 16.754 11.824 17.842 11.312C18.9513 10.8 20.1993 10.544 21.586 10.544H22.098C23.8047 10.544 25.0953 10.7787 25.97 11.248C26.866 11.7173 27.314 12.3573 27.314 13.168C27.314 14.0213 27.0153 14.448 26.418 14.448L24.434 13.584C23.5167 13.2213 22.6313 13.04 21.778 13.04C20.0073 13.04 18.5993 13.6693 17.554 14.928C16.5087 16.1867 15.986 17.968 15.986 20.272C15.986 21.1893 16.082 22.0853 16.274 22.96C16.4873 23.8133 16.818 24.5813 17.266 25.264C17.714 25.9467 18.3007 26.5013 19.026 26.928C19.7513 27.3333 20.6473 27.536 21.714 27.536C22.5887 27.536 23.3247 27.2907 23.922 26.8C24.5193 26.288 24.818 25.5733 24.818 24.656ZM37.6793 30.192H37.0713C36.1326 30.192 35.2899 30.032 34.5433 29.712C33.7966 29.3707 33.1673 28.912 32.6553 28.336C32.1433 27.7387 31.7486 27.056 31.4713 26.288C31.2153 25.4987 31.0872 24.6453 31.0872 23.728V23.12C31.0872 22.16 31.2473 21.264 31.5673 20.432C31.8873 19.6 32.3353 18.8853 32.9113 18.288C33.5086 17.6693 34.2019 17.1893 34.9913 16.848C35.8019 16.5067 36.6873 16.336 37.6473 16.336H37.9353C39.2153 16.336 40.2819 16.72 41.1353 17.488C41.6046 17.936 41.9566 18.48 42.1913 19.12C42.4473 19.7387 42.5753 20.304 42.5753 20.816C42.5753 21.3707 42.5113 21.808 42.3833 22.128C42.2553 22.448 42.0206 22.704 41.6793 22.896C41.3593 23.088 40.9219 23.2373 40.3673 23.344C39.8126 23.4293 39.1086 23.5253 38.2552 23.632C37.4019 23.7387 36.7406 23.824 36.2713 23.888C35.8233 23.9307 35.5459 23.9627 35.4393 23.984C34.6499 24.1973 34.2552 24.56 34.2552 25.072C34.2552 25.968 34.6073 26.672 35.3113 27.184C36.0153 27.696 36.9219 27.952 38.0312 27.952C38.4793 27.952 39.1619 27.824 40.0793 27.568C40.5699 27.44 40.9433 27.344 41.1993 27.28C41.4553 27.1947 41.6046 27.152 41.6473 27.152C42.1166 27.152 42.3513 27.376 42.3513 27.824C42.3513 28.1013 42.2019 28.3787 41.9033 28.656C41.6259 28.9333 41.2633 29.1893 40.8153 29.424C40.3673 29.6373 39.8659 29.8187 39.3113 29.968C38.7566 30.1173 38.2126 30.192 37.6793 30.192ZM38.2233 21.936C38.3726 21.936 38.5433 21.9253 38.7353 21.904C38.9273 21.8827 39.1086 21.84 39.2793 21.776C39.4713 21.6907 39.6313 21.584 39.7593 21.456C39.8873 21.328 39.9513 21.168 39.9513 20.976V20.4C39.9513 19.7387 39.7059 19.1947 39.2153 18.768C38.7246 18.32 38.1913 18.096 37.6153 18.096H37.2633C36.8579 18.096 36.4633 18.192 36.0793 18.384C35.6953 18.576 35.3539 18.832 35.0553 19.152C34.7779 19.472 34.5539 19.8347 34.3833 20.24C34.2126 20.624 34.1273 21.0293 34.1273 21.456V21.712C34.1273 22.032 34.4259 22.192 35.0233 22.192H35.3433L35.4073 22.16L37.6153 22C37.6579 21.9787 37.7006 21.968 37.7433 21.968C37.8073 21.968 37.8713 21.9573 37.9353 21.936H38.2233ZM51.037 29.968H50.525C49.181 29.968 48.253 29.456 47.741 28.432C47.229 27.408 46.973 25.8293 46.973 23.696C46.973 21.6053 46.8557 20.1547 46.621 19.344C46.5143 19.024 46.2797 18.6827 45.917 18.32C45.5543 17.9573 45.373 17.6373 45.373 17.36V17.168C45.373 16.9547 45.5863 16.6987 46.013 16.4C46.2263 16.2507 46.3863 16.144 46.493 16.08C46.621 15.9947 46.717 15.8987 46.781 15.792C46.845 15.664 46.8983 15.504 46.941 15.312C47.005 15.12 47.0797 14.832 47.165 14.448C47.3783 13.68 47.5917 13.1467 47.805 12.848C48.0397 12.528 48.349 12.368 48.733 12.368C49.117 12.368 49.3837 12.4853 49.533 12.72C49.6823 12.9333 49.8423 13.3813 50.013 14.064C50.0983 14.4053 50.173 14.6933 50.237 14.928C50.3223 15.1413 50.429 15.3227 50.557 15.472C50.685 15.6213 50.8557 15.76 51.069 15.888C51.2823 15.9947 51.581 16.112 51.965 16.24C52.7117 16.496 53.085 16.816 53.085 17.2C53.085 17.5413 52.6903 17.8613 51.901 18.16C51.1543 18.416 50.6637 18.7573 50.429 19.184C50.045 19.952 49.853 21.328 49.853 23.312C49.853 25.3173 50.0237 26.5227 50.365 26.928C50.7063 27.376 51.261 27.6533 52.029 27.76C52.797 27.8453 53.181 28.1333 53.181 28.624C53.181 28.9867 52.957 29.3067 52.509 29.584C52.0823 29.84 51.5917 29.968 51.037 29.968ZM63.9125 19.824C63.9125 19.2693 64.0298 18.768 64.2645 18.32C64.5205 17.8507 64.8725 17.456 65.3205 17.136C65.7685 16.7947 66.3018 16.5387 66.9205 16.368C67.5392 16.176 68.2112 16.08 68.9365 16.08C69.2352 16.08 69.6192 16.1013 70.0885 16.144C70.5792 16.1653 71.0485 16.24 71.4965 16.368C71.9445 16.4747 72.3285 16.6667 72.6485 16.944C72.9685 17.2 73.1285 17.552 73.1285 18C73.1285 18.768 72.8832 19.152 72.3925 19.152C72.2218 19.152 71.7525 18.96 70.9845 18.576C70.2165 18.2133 69.4912 18.032 68.8085 18.032C68.1045 18.032 67.5712 18.192 67.2085 18.512C66.8672 18.832 66.6965 19.248 66.6965 19.76C66.6965 20.016 66.7498 20.2293 66.8565 20.4C66.9632 20.5707 67.1338 20.7413 67.3685 20.912C67.6245 21.0613 67.9552 21.2213 68.3605 21.392C68.7872 21.5627 69.3205 21.776 69.9605 22.032C71.2192 22.544 72.1685 23.088 72.8085 23.664C73.4698 24.24 73.8005 25.0933 73.8005 26.224C73.8005 26.8 73.6725 27.3333 73.4165 27.824C73.1818 28.2933 72.8405 28.7093 72.3925 29.072C71.9445 29.4347 71.4112 29.7227 70.7925 29.936C70.1738 30.128 69.4912 30.224 68.7445 30.224C66.2485 30.224 64.6912 29.7333 64.0725 28.752C63.8805 28.432 63.7845 28.1547 63.7845 27.92C63.7845 27.1307 64.0298 26.736 64.5205 26.736C64.6698 26.736 65.2138 26.9707 66.1525 27.44C67.0485 27.952 67.8698 28.208 68.6165 28.208C69.3632 28.208 69.9392 28.0587 70.3445 27.76C70.7712 27.44 70.9845 27.0027 70.9845 26.448C70.9845 26.1707 70.9312 25.936 70.8245 25.744C70.7178 25.5307 70.5365 25.3387 70.2805 25.168C70.0245 24.976 69.6832 24.7947 69.2565 24.624C68.8512 24.432 68.3392 24.208 67.7205 23.952C67.2298 23.76 66.7498 23.5467 66.2805 23.312C65.8325 23.0773 65.4272 22.8107 65.0645 22.512C64.7232 22.192 64.4458 21.8187 64.2325 21.392C64.0192 20.9653 63.9125 20.4427 63.9125 19.824ZM81.9745 29.968H81.4625C80.1185 29.968 79.1905 29.456 78.6785 28.432C78.1665 27.408 77.9105 25.8293 77.9105 23.696C77.9105 21.6053 77.7932 20.1547 77.5585 19.344C77.4518 19.024 77.2172 18.6827 76.8545 18.32C76.4918 17.9573 76.3105 17.6373 76.3105 17.36V17.168C76.3105 16.9547 76.5238 16.6987 76.9505 16.4C77.1638 16.2507 77.3238 16.144 77.4305 16.08C77.5585 15.9947 77.6545 15.8987 77.7185 15.792C77.7825 15.664 77.8358 15.504 77.8785 15.312C77.9425 15.12 78.0172 14.832 78.1025 14.448C78.3158 13.68 78.5292 13.1467 78.7425 12.848C78.9772 12.528 79.2865 12.368 79.6705 12.368C80.0545 12.368 80.3212 12.4853 80.4705 12.72C80.6198 12.9333 80.7798 13.3813 80.9505 14.064C81.0358 14.4053 81.1105 14.6933 81.1745 14.928C81.2598 15.1413 81.3665 15.3227 81.4945 15.472C81.6225 15.6213 81.7932 15.76 82.0065 15.888C82.2198 15.9947 82.5185 16.112 82.9025 16.24C83.6492 16.496 84.0225 16.816 84.0225 17.2C84.0225 17.5413 83.6278 17.8613 82.8385 18.16C82.0918 18.416 81.6012 18.7573 81.3665 19.184C80.9825 19.952 80.7905 21.328 80.7905 23.312C80.7905 25.3173 80.9612 26.5227 81.3025 26.928C81.6438 27.376 82.1985 27.6533 82.9665 27.76C83.7345 27.8453 84.1185 28.1333 84.1185 28.624C84.1185 28.9867 83.8945 29.3067 83.4465 29.584C83.0198 29.84 82.5292 29.968 81.9745 29.968ZM98.4913 28.944C98.4913 29.5627 97.8726 29.872 96.6353 29.872C96.5286 29.872 96.3793 29.8507 96.1873 29.808C95.9953 29.744 95.7499 29.648 95.4513 29.52C94.8966 29.3067 94.5339 29.2 94.3633 29.2C94.1926 29.2 93.6913 29.36 92.8593 29.68C92.0273 30 91.2806 30.16 90.6193 30.16H90.2993C89.8086 30.16 89.3393 30.0747 88.8913 29.904C88.4433 29.7333 88.0486 29.488 87.7073 29.168C87.3873 28.848 87.1206 28.464 86.9073 28.016C86.7153 27.568 86.6193 27.056 86.6193 26.48C86.6193 24.1333 88.0913 22.6933 91.0353 22.16C92.9553 21.776 93.9366 21.5733 93.9792 21.552C94.4273 21.3173 94.6513 20.9013 94.6513 20.304C94.6513 19.6853 94.4593 19.184 94.0753 18.8C93.6913 18.3947 93.1686 18.192 92.5073 18.192C91.8246 18.192 91.0566 18.4053 90.2033 18.832C89.3073 19.28 88.6993 19.504 88.3793 19.504C87.7819 19.504 87.4833 19.0987 87.4833 18.288C87.4833 18.032 87.6113 17.776 87.8673 17.52C88.1233 17.264 88.4646 17.04 88.8913 16.848C89.3179 16.6347 89.8086 16.464 90.3633 16.336C90.9179 16.208 91.4939 16.144 92.0913 16.144H92.7953C93.6913 16.144 94.4806 16.3147 95.1633 16.656C95.8673 16.9973 96.4006 17.456 96.7633 18.032C97.2966 18.8213 97.5633 20.688 97.5633 23.632C97.5633 25.296 97.5953 26.32 97.6593 26.704C97.7233 27.1307 97.8833 27.536 98.1393 27.92C98.3739 28.304 98.4913 28.6453 98.4913 28.944ZM91.5473 28.304H91.9633C92.8379 28.304 93.5206 28.016 94.0113 27.44C94.5233 26.864 94.7793 26.032 94.7793 24.944V24.4C94.7793 23.7173 94.4913 23.376 93.9153 23.376H93.4993L92.4113 23.472C91.5579 23.472 90.8539 23.7067 90.2993 24.176C89.7659 24.6453 89.4993 25.2107 89.4993 25.872V26.352C89.4993 26.8427 89.6699 27.2907 90.0113 27.696C90.3739 28.1013 90.8859 28.304 91.5473 28.304ZM108.223 19.152C107.37 19.152 106.698 19.5787 106.207 20.432C105.738 21.2853 105.503 22.5973 105.503 24.368C105.503 24.752 105.514 25.072 105.535 25.328C105.557 25.584 105.578 25.8187 105.599 26.032C105.642 26.224 105.685 26.416 105.727 26.608C105.791 26.7787 105.855 26.992 105.919 27.248C105.962 27.4827 106.005 27.7067 106.047 27.92C106.09 28.1333 106.111 28.3253 106.111 28.496C106.111 28.8587 105.898 29.1893 105.471 29.488C105.045 29.7653 104.49 29.904 103.807 29.904L103.583 29.872H103.327C102.901 29.872 102.538 29.7547 102.239 29.52C101.941 29.264 101.791 28.9867 101.791 28.688V28.464C101.791 28.3787 101.887 28.0693 102.079 27.536C102.25 26.9813 102.346 26.4587 102.367 25.968C102.389 25.4773 102.399 24.8053 102.399 23.952V21.68L102.367 20.944V19.952C102.367 19.504 102.282 19.0453 102.111 18.576C101.941 18.2133 101.855 17.936 101.855 17.744C101.855 17.1893 102.335 16.912 103.295 16.912C104.277 16.912 104.97 17.1787 105.375 17.712C105.525 17.8613 105.663 17.936 105.791 17.936C105.919 17.936 106.154 17.8187 106.495 17.584C107.434 16.9653 108.202 16.656 108.799 16.656H109.023C109.578 16.656 109.994 16.784 110.271 17.04C110.57 17.2747 110.719 17.5947 110.719 18C110.719 18.832 110.271 19.248 109.375 19.248C108.991 19.184 108.607 19.152 108.223 19.152ZM118.443 29.968H117.931C116.587 29.968 115.659 29.456 115.147 28.432C114.635 27.408 114.379 25.8293 114.379 23.696C114.379 21.6053 114.262 20.1547 114.027 19.344C113.921 19.024 113.686 18.6827 113.323 18.32C112.961 17.9573 112.779 17.6373 112.779 17.36V17.168C112.779 16.9547 112.993 16.6987 113.419 16.4C113.633 16.2507 113.793 16.144 113.899 16.08C114.027 15.9947 114.123 15.8987 114.187 15.792C114.251 15.664 114.305 15.504 114.347 15.312C114.411 15.12 114.486 14.832 114.571 14.448C114.785 13.68 114.998 13.1467 115.211 12.848C115.446 12.528 115.755 12.368 116.139 12.368C116.523 12.368 116.79 12.4853 116.939 12.72C117.089 12.9333 117.249 13.3813 117.419 14.064C117.505 14.4053 117.579 14.6933 117.643 14.928C117.729 15.1413 117.835 15.3227 117.963 15.472C118.091 15.6213 118.262 15.76 118.475 15.888C118.689 15.9947 118.987 16.112 119.371 16.24C120.118 16.496 120.491 16.816 120.491 17.2C120.491 17.5413 120.097 17.8613 119.307 18.16C118.561 18.416 118.07 18.7573 117.835 19.184C117.451 19.952 117.259 21.328 117.259 23.312C117.259 25.3173 117.43 26.5227 117.771 26.928C118.113 27.376 118.667 27.6533 119.435 27.76C120.203 27.8453 120.587 28.1333 120.587 28.624C120.587 28.9867 120.363 29.3067 119.915 29.584C119.489 29.84 118.998 29.968 118.443 29.968ZM129.648 30.192H129.04C128.101 30.192 127.259 30.032 126.512 29.712C125.765 29.3707 125.136 28.912 124.624 28.336C124.112 27.7387 123.717 27.056 123.44 26.288C123.184 25.4987 123.056 24.6453 123.056 23.728V23.12C123.056 22.16 123.216 21.264 123.536 20.432C123.856 19.6 124.304 18.8853 124.88 18.288C125.477 17.6693 126.171 17.1893 126.96 16.848C127.771 16.5067 128.656 16.336 129.616 16.336H129.904C131.184 16.336 132.251 16.72 133.104 17.488C133.573 17.936 133.925 18.48 134.16 19.12C134.416 19.7387 134.544 20.304 134.544 20.816C134.544 21.3707 134.48 21.808 134.352 22.128C134.224 22.448 133.989 22.704 133.648 22.896C133.328 23.088 132.891 23.2373 132.336 23.344C131.781 23.4293 131.077 23.5253 130.224 23.632C129.371 23.7387 128.709 23.824 128.24 23.888C127.792 23.9307 127.515 23.9627 127.408 23.984C126.619 24.1973 126.224 24.56 126.224 25.072C126.224 25.968 126.576 26.672 127.28 27.184C127.984 27.696 128.891 27.952 130 27.952C130.448 27.952 131.131 27.824 132.048 27.568C132.539 27.44 132.912 27.344 133.168 27.28C133.424 27.1947 133.573 27.152 133.616 27.152C134.085 27.152 134.32 27.376 134.32 27.824C134.32 28.1013 134.171 28.3787 133.872 28.656C133.595 28.9333 133.232 29.1893 132.784 29.424C132.336 29.6373 131.835 29.8187 131.28 29.968C130.725 30.1173 130.181 30.192 129.648 30.192ZM130.192 21.936C130.341 21.936 130.512 21.9253 130.704 21.904C130.896 21.8827 131.077 21.84 131.248 21.776C131.44 21.6907 131.6 21.584 131.728 21.456C131.856 21.328 131.92 21.168 131.92 20.976V20.4C131.92 19.7387 131.675 19.1947 131.184 18.768C130.693 18.32 130.16 18.096 129.584 18.096H129.232C128.827 18.096 128.432 18.192 128.048 18.384C127.664 18.576 127.323 18.832 127.024 19.152C126.747 19.472 126.523 19.8347 126.352 20.24C126.181 20.624 126.096 21.0293 126.096 21.456V21.712C126.096 22.032 126.395 22.192 126.992 22.192H127.312L127.376 22.16L129.584 22C129.627 21.9787 129.669 21.968 129.712 21.968C129.776 21.968 129.84 21.9573 129.904 21.936H130.192ZM143.902 16.4C144.414 16.4 144.819 16.368 145.118 16.304C145.416 16.24 145.64 16.112 145.79 15.92C145.96 15.728 146.067 15.4507 146.11 15.088C146.174 14.704 146.206 14.2027 146.206 13.584C146.206 13.392 146.195 13.2 146.174 13.008C146.152 12.7947 146.12 12.592 146.078 12.4C145.992 12.0373 145.95 11.7707 145.95 11.6C145.95 11.1947 146.099 10.8533 146.398 10.576C146.718 10.2773 147.176 10.128 147.774 10.128H148.03C148.755 10.128 149.171 10.4587 149.278 11.12C149.363 11.5467 149.406 14.1173 149.406 18.832L149.374 20.496V22.8L149.406 24.048V24.688L149.438 24.976V26.064C149.438 26.3413 149.459 26.608 149.502 26.864C149.544 27.12 149.598 27.376 149.662 27.632C149.811 28.08 149.886 28.432 149.886 28.688C149.886 28.88 149.768 29.072 149.534 29.264C149.32 29.456 148.99 29.552 148.542 29.552C148.094 29.552 147.646 29.488 147.198 29.36C146.963 29.296 146.76 29.2533 146.59 29.232C146.44 29.2107 146.312 29.2 146.206 29.2C146.035 29.2 145.566 29.328 144.798 29.584C144.414 29.712 144.051 29.8187 143.71 29.904C143.39 29.968 143.08 30 142.782 30H142.462C140.883 30 139.667 29.4773 138.814 28.432C137.96 27.3653 137.534 25.968 137.534 24.24V23.536C137.534 22.576 137.672 21.6693 137.95 20.816C138.227 19.9413 138.632 19.184 139.166 18.544C139.72 17.8827 140.392 17.36 141.182 16.976C141.971 16.592 142.878 16.4 143.902 16.4ZM146.302 20.784C146.302 19.9733 146.099 19.3227 145.694 18.832C145.288 18.32 144.627 18.064 143.71 18.064H143.582L143.454 18.096C142.494 18.096 141.704 18.544 141.086 19.44C140.467 20.336 140.158 21.584 140.158 23.184V23.792C140.158 25.2213 140.435 26.32 140.99 27.088C141.566 27.856 142.27 28.24 143.102 28.24H143.23C143.87 28.24 144.382 28.112 144.766 27.856C145.171 27.6 145.48 27.2693 145.694 26.864C145.928 26.4587 146.088 26 146.174 25.488C146.259 24.9547 146.302 24.432 146.302 23.92L146.334 23.056V21.488L146.302 21.072V20.784Z" fill="#F0F2F2"/>
<path d="M24.082 22.512L24.8655 21.8906L24.8556 21.8782L24.8454 21.8661L24.082 22.512ZM25.586 21.136L25.5236 22.1341L25.5273 22.1343L25.586 21.136ZM26.642 21.296L26.8845 20.3259L26.642 21.296ZM27.506 21.68L26.9178 22.4887L26.9343 22.5007L26.9513 22.512L27.506 21.68ZM27.602 26.448L26.6172 26.2742L26.6158 26.2821L26.6146 26.29L27.602 26.448ZM27.346 27.792L28.3162 28.0346L28.3194 28.021L27.346 27.792ZM26.962 28.656L26.1533 28.0678L26.1479 28.0751L26.1428 28.0825L26.962 28.656ZM26.354 29.2L26.8329 30.0779L26.8455 30.071L26.8579 30.0638L26.354 29.2ZM25.362 29.584L25.0747 28.6262L25.0624 28.6299L25.0502 28.6338L25.362 29.584ZM17.682 29.52L17.2421 30.4181L17.253 30.4234L17.2641 30.4285L17.682 29.52ZM14.994 27.472L14.2242 28.1103L14.2327 28.1205L14.2414 28.1305L14.994 27.472ZM13.298 24.464L12.3511 24.7856L12.3538 24.7935L12.3567 24.8015L13.298 24.464ZM13.33 16.528L14.2752 16.8545L14.277 16.8493L13.33 16.528ZM15.058 13.424L14.2987 12.7732L14.2974 12.7747L15.058 13.424ZM17.842 11.312L17.4229 10.404L17.4162 10.4072L17.842 11.312ZM25.97 11.248L25.4972 12.1292L25.506 12.1338L25.97 11.248ZM26.418 14.448L26.0187 15.3648L26.2097 15.448H26.418V14.448ZM24.434 13.584L24.8333 12.6672L24.8176 12.6603L24.8017 12.654L24.434 13.584ZM17.554 14.928L18.3233 15.5669L17.554 14.928ZM16.274 22.96L15.2973 23.1744L15.3004 23.1885L15.3039 23.2025L16.274 22.96ZM17.266 25.264L16.43 25.8127L17.266 25.264ZM19.026 26.928L18.519 27.7899L18.5285 27.7955L18.5382 27.8009L19.026 26.928ZM23.922 26.8L24.5567 27.5727L24.5648 27.5661L24.5728 27.5593L23.922 26.8ZM25.818 24.656C25.818 23.6262 25.5004 22.6911 24.8655 21.8906L23.2985 23.1334C23.645 23.5702 23.818 24.0644 23.818 24.656H25.818ZM24.8454 21.8661C24.6142 21.5928 24.4518 21.3928 24.3507 21.2596C24.2986 21.191 24.275 21.1559 24.2686 21.1458C24.2647 21.1395 24.2775 21.1588 24.2947 21.1956C24.3035 21.2143 24.3201 21.2518 24.3359 21.3029C24.3494 21.3464 24.378 21.4485 24.378 21.584H22.378C22.378 21.8294 22.4697 22.0144 22.4833 22.0434C22.5152 22.1115 22.55 22.1698 22.5754 22.2102C22.6277 22.2934 22.6921 22.3824 22.7573 22.4684C22.8909 22.6445 23.0805 22.8765 23.3186 23.1579L24.8454 21.8661ZM24.378 21.584C24.378 21.6694 24.3617 21.764 24.3223 21.858C24.2833 21.951 24.2306 22.0224 24.181 22.0731C24.0904 22.1658 24.0184 22.1822 24.0527 22.1705C24.0799 22.1612 24.1506 22.1426 24.2829 22.1276C24.4117 22.113 24.5778 22.104 24.786 22.104V20.104C24.2866 20.104 23.8012 20.1432 23.4073 20.2775C23.0295 20.4063 22.378 20.7729 22.378 21.584H24.378ZM24.786 22.104C24.9471 22.104 25.1897 22.1132 25.5236 22.1341L25.6484 20.1379C25.2996 20.1161 25.0089 20.104 24.786 20.104V22.104ZM25.5273 22.1343C25.83 22.1521 26.1203 22.1964 26.3995 22.2661L26.8845 20.3259C26.481 20.225 26.0674 20.1626 25.6447 20.1377L25.5273 22.1343ZM26.3995 22.2661C26.6421 22.3268 26.8065 22.4077 26.9178 22.4887L28.0942 20.8713C27.7362 20.6109 27.3246 20.4359 26.8845 20.3259L26.3995 22.2661ZM26.9513 22.512C26.965 22.5212 26.9406 22.5078 26.9161 22.4629C26.9049 22.4422 26.8976 22.4221 26.8936 22.4054C26.8897 22.3892 26.89 22.381 26.89 22.384H28.89C28.89 21.739 28.5848 21.1974 28.0607 20.8479L26.9513 22.512ZM26.89 22.384V22.704H28.89V22.384H26.89ZM26.89 22.704C26.89 24.0687 26.7968 25.2567 26.6172 26.2742L28.5868 26.6218C28.7912 25.4633 28.89 24.1553 28.89 22.704H26.89ZM26.6146 26.29C26.5315 26.8091 26.4505 27.2316 26.3726 27.563L28.3194 28.021C28.4121 27.627 28.5018 27.1536 28.5894 26.606L26.6146 26.29ZM26.3759 27.5495C26.3152 27.7921 26.2343 27.9565 26.1533 28.0678L27.7707 29.2442C28.0311 28.8862 28.2061 28.4746 28.3161 28.0345L26.3759 27.5495ZM26.1428 28.0825C26.0871 28.1621 25.9985 28.2497 25.8501 28.3362L26.8579 30.0638C27.2215 29.8517 27.5383 29.5766 27.7812 29.2295L26.1428 28.0825ZM25.8751 28.3221C25.7282 28.4023 25.4725 28.5068 25.0747 28.6262L25.6493 30.5418C26.1048 30.4052 26.5105 30.2537 26.8329 30.0779L25.8751 28.3221ZM25.0502 28.6338C23.7482 29.0611 22.6629 29.256 21.778 29.256V31.256C22.9411 31.256 24.2451 31.0029 25.6738 30.5342L25.0502 28.6338ZM21.778 29.256H21.298V31.256H21.778V29.256ZM21.298 29.256C20.0774 29.256 19.0178 29.0337 18.0999 28.6115L17.2641 30.4285C18.4795 30.9876 19.8306 31.256 21.298 31.256V29.256ZM18.1219 28.6219C17.1924 28.1667 16.4036 27.5644 15.7466 26.8135L14.2414 28.1305C15.0778 29.0863 16.0809 29.8493 17.2421 30.4181L18.1219 28.6219ZM15.7638 26.8337C15.1168 26.0536 14.6077 25.154 14.2393 24.1265L12.3567 24.8015C12.799 26.0353 13.4205 27.1411 14.2242 28.1103L15.7638 26.8337ZM14.2449 24.1424C13.8985 23.1225 13.722 22.0265 13.722 20.848H11.722C11.722 22.2295 11.9295 23.5441 12.3511 24.7856L14.2449 24.1424ZM13.722 20.848V20.304H11.722V20.848H13.722ZM13.722 20.304C13.722 19.0619 13.909 17.9145 14.2752 16.8545L12.3848 16.2015C11.9403 17.4882 11.722 18.8581 11.722 20.304H13.722ZM14.277 16.8493C14.6455 15.7631 15.1619 14.8425 15.8186 14.0733L14.2974 12.7747C13.4607 13.7549 12.8252 14.9036 12.383 16.2067L14.277 16.8493ZM15.8173 14.0748C16.4915 13.2881 17.3052 12.6698 18.2678 12.2168L17.4162 10.4072C16.2028 10.9782 15.1605 11.7679 14.2987 12.7732L15.8173 14.0748ZM18.2611 12.22C19.2223 11.7763 20.3245 11.544 21.586 11.544V9.544C20.0742 9.544 18.6803 9.82371 17.4229 10.404L18.2611 12.22ZM21.586 11.544H22.098V9.544H21.586V11.544ZM22.098 11.544C23.7429 11.544 24.8377 11.7753 25.4972 12.1292L26.4428 10.3668C25.353 9.78207 23.8664 9.544 22.098 9.544V11.544ZM25.506 12.1338C26.1694 12.4813 26.314 12.8273 26.314 13.168H28.314C28.314 11.8874 27.5626 10.9533 26.434 10.3622L25.506 12.1338ZM26.314 13.168C26.314 13.3262 26.2998 13.4335 26.2842 13.5008C26.2685 13.5678 26.2559 13.5758 26.2708 13.5545C26.2901 13.5269 26.3282 13.4899 26.3801 13.4651C26.427 13.4428 26.4485 13.448 26.418 13.448V15.448C26.9876 15.448 27.5431 15.2245 27.9092 14.7015C28.2298 14.2435 28.314 13.6807 28.314 13.168H26.314ZM26.8173 13.5312L24.8333 12.6672L24.0347 14.5008L26.0187 15.3648L26.8173 13.5312ZM24.8017 12.654C23.7853 12.2522 22.7752 12.04 21.778 12.04V14.04C22.4874 14.04 23.248 14.1904 24.0663 14.514L24.8017 12.654ZM21.778 12.04C19.7378 12.04 18.0371 12.7811 16.7847 14.2891L18.3233 15.5669C19.1615 14.5576 20.2769 14.04 21.778 14.04V12.04ZM16.7847 14.2891C15.5396 15.7883 14.986 17.8286 14.986 20.272H16.986C16.986 18.1074 17.4777 16.5851 18.3233 15.5669L16.7847 14.2891ZM14.986 20.272C14.986 21.2597 15.0894 22.2276 15.2973 23.1744L17.2507 22.7456C17.0746 21.943 16.986 21.119 16.986 20.272H14.986ZM15.3039 23.2025C15.5423 24.1563 15.9158 25.0292 16.43 25.8127L18.102 24.7153C17.7202 24.1335 17.4324 23.4704 17.2441 22.7175L15.3039 23.2025ZM16.43 25.8127C16.9648 26.6276 17.6656 27.2879 18.519 27.7899L19.533 26.0661C18.9358 25.7147 18.4632 25.2657 18.102 24.7153L16.43 25.8127ZM18.5382 27.8009C19.4491 28.31 20.5239 28.536 21.714 28.536V26.536C20.7708 26.536 20.0536 26.3567 19.5138 26.0551L18.5382 27.8009ZM21.714 28.536C22.7879 28.536 23.7571 28.2296 24.5567 27.5727L23.2873 26.0273C22.8922 26.3518 22.3894 26.536 21.714 26.536V28.536ZM24.5728 27.5593C25.4295 26.8249 25.818 25.8116 25.818 24.656H23.818C23.818 25.3351 23.6091 25.7511 23.2712 26.0407L24.5728 27.5593ZM34.5433 29.712L34.1275 30.6215L34.1384 30.6264L34.1493 30.6311L34.5433 29.712ZM32.6553 28.336L31.896 28.9868L31.9019 28.9936L31.9078 29.0004L32.6553 28.336ZM31.4713 26.288L30.52 26.5965L30.5251 26.6122L30.5307 26.6276L31.4713 26.288ZM32.9113 18.288L32.1918 17.5934L32.1914 17.5939L32.9113 18.288ZM34.9912 16.848L34.6032 15.9263L34.5943 15.9301L34.9912 16.848ZM41.1353 17.488L41.8257 16.7646L41.8151 16.7545L41.8042 16.7447L41.1353 17.488ZM42.1912 19.12L41.2524 19.4643L41.2594 19.4835L41.2672 19.5024L42.1912 19.12ZM42.3833 22.128L41.4548 21.7566V21.7566L42.3833 22.128ZM41.6793 22.896L41.189 22.0244L41.1768 22.0313L41.1648 22.0385L41.6793 22.896ZM40.3672 23.344L40.5193 24.3324L40.5378 24.3295L40.5561 24.326L40.3672 23.344ZM38.2552 23.632L38.1312 22.6397L38.2552 23.632ZM36.2713 23.888L36.3661 24.8835L36.3863 24.8816L36.4064 24.8788L36.2713 23.888ZM35.4393 23.984L35.2431 23.0034L35.2105 23.0099L35.1783 23.0186L35.4393 23.984ZM35.3112 27.184L35.8994 26.3753L35.3112 27.184ZM40.0793 27.568L39.8268 26.6004L39.8186 26.6025L39.8105 26.6048L40.0793 27.568ZM41.1992 27.28L41.4418 28.2501L41.479 28.2408L41.5155 28.2287L41.1992 27.28ZM41.9033 28.656L41.2228 27.9232L41.2092 27.9358L41.1961 27.9489L41.9033 28.656ZM40.8153 29.424L41.2452 30.3269L41.2624 30.3187L41.2793 30.3098L40.8153 29.424ZM39.3112 29.968L39.5712 30.9336L39.3112 29.968ZM38.7353 21.904L38.6248 20.9101H38.6248L38.7353 21.904ZM39.2793 21.776L39.6304 22.7123L39.6582 22.7019L39.6854 22.6898L39.2793 21.776ZM39.2152 18.768L38.541 19.5065L38.5499 19.5147L38.5591 19.5226L39.2152 18.768ZM35.0553 19.152L34.3242 18.4697L34.3116 18.4831L34.2996 18.4971L35.0553 19.152ZM34.3833 20.24L35.2971 20.6461L35.3011 20.6371L35.3049 20.6281L34.3833 20.24ZM35.3433 22.192V23.192H35.5793L35.7905 23.0864L35.3433 22.192ZM35.4072 22.16L35.335 21.1626L35.1373 21.1769L34.96 21.2656L35.4072 22.16ZM37.6152 22L37.6875 22.9974L37.8852 22.9831L38.0625 22.8944L37.6152 22ZM37.9352 21.936V20.936H37.773L37.619 20.9873L37.9352 21.936ZM37.6792 29.192H37.0713V31.192H37.6792V29.192ZM37.0713 29.192C36.2471 29.192 35.5415 29.0519 34.9372 28.7929L34.1493 30.6311C35.0383 31.0121 36.018 31.192 37.0713 31.192V29.192ZM34.959 28.8025C34.3303 28.5151 33.8164 28.1371 33.4027 27.6716L31.9078 29.0004C32.5181 29.6869 33.2628 30.2262 34.1275 30.6215L34.959 28.8025ZM33.4145 27.6852C32.9842 27.1832 32.6496 26.6069 32.4118 25.9484L30.5307 26.6276C30.8476 27.5051 31.3023 28.2941 31.896 28.9868L33.4145 27.6852ZM32.4225 25.9795C32.202 25.2997 32.0872 24.5515 32.0872 23.728H30.0872C30.0872 24.7391 30.2285 25.6976 30.52 26.5965L32.4225 25.9795ZM32.0872 23.728V23.12H30.0872V23.728H32.0872ZM32.0872 23.12C32.0872 22.2732 32.2279 21.4999 32.5006 20.791L30.6339 20.073C30.2666 21.0281 30.0872 22.0468 30.0872 23.12H32.0872ZM32.5006 20.791C32.7762 20.0745 33.1547 19.4762 33.6311 18.9821L32.1914 17.5939C31.5158 18.2945 30.9983 19.1255 30.6339 20.073L32.5006 20.791ZM33.6306 18.9826C34.1363 18.4589 34.72 18.0548 35.3882 17.7659L34.5943 15.9301C33.6838 16.3239 32.8809 16.8798 32.1918 17.5934L33.6306 18.9826ZM35.3793 17.7696C36.0563 17.4846 36.8083 17.336 37.6473 17.336V15.336C36.5662 15.336 35.5475 15.5288 34.6032 15.9264L35.3793 17.7696ZM37.6473 17.336H37.9352V15.336H37.6473V17.336ZM37.9352 17.336C38.9988 17.336 39.8181 17.6479 40.4663 18.2313L41.8042 16.7447C40.7457 15.7921 39.4317 15.336 37.9352 15.336V17.336ZM40.4448 18.2114C40.7978 18.5483 41.0677 18.9605 41.2524 19.4643L43.1301 18.7757C42.8455 17.9995 42.4114 17.3237 41.8257 16.7646L40.4448 18.2114ZM41.2672 19.5024C41.4878 20.0353 41.5752 20.4688 41.5752 20.816H43.5752C43.5752 20.1392 43.4067 19.4421 43.1153 18.7376L41.2672 19.5024ZM41.5752 20.816C41.5752 21.3116 41.5155 21.6048 41.4548 21.7566L43.3117 22.4994C43.507 22.0112 43.5752 21.4298 43.5752 20.816H41.5752ZM41.4548 21.7566C41.4229 21.8362 41.3601 21.9282 41.189 22.0244L42.1695 23.7676C42.6811 23.4798 43.0876 23.0598 43.3117 22.4994L41.4548 21.7566ZM41.1648 22.0385C40.9829 22.1476 40.671 22.2673 40.1784 22.362L40.5561 24.326C41.1728 24.2074 41.7356 24.0284 42.1937 23.7535L41.1648 22.0385ZM40.2152 22.3556C39.6734 22.439 38.9795 22.5337 38.1312 22.6397L38.3793 24.6243C39.2376 24.517 39.9518 24.4197 40.5193 24.3324L40.2152 22.3556ZM38.1312 22.6397C37.2766 22.7465 36.611 22.8324 36.1361 22.8972L36.4064 24.8788C36.8702 24.8156 37.5272 24.7308 38.3793 24.6243L38.1312 22.6397ZM36.1764 22.8925C35.7487 22.9332 35.4118 22.9697 35.2431 23.0034L35.6354 24.9646C35.6332 24.965 35.6478 24.9622 35.6888 24.9565C35.7267 24.9512 35.7772 24.9449 35.8419 24.9374C35.9712 24.9225 36.1452 24.9045 36.3661 24.8835L36.1764 22.8925ZM35.1783 23.0186C34.703 23.1471 34.2361 23.3475 33.8746 23.6797C33.4821 24.0404 33.2552 24.5216 33.2552 25.072H35.2552C35.2552 25.0761 35.2536 25.0988 35.2408 25.1273C35.2284 25.1547 35.217 25.1623 35.2279 25.1523C35.2611 25.1218 35.3862 25.0342 35.7002 24.9494L35.1783 23.0186ZM33.2552 25.072C33.2552 26.2769 33.7515 27.2861 34.7231 27.9927L35.8994 26.3753C35.463 26.0579 35.2552 25.6591 35.2552 25.072H33.2552ZM34.7231 27.9927C35.6398 28.6594 36.7688 28.952 38.0312 28.952V26.952C37.075 26.952 36.3907 26.7326 35.8994 26.3753L34.7231 27.9927ZM38.0312 28.952C38.6245 28.952 39.4185 28.7906 40.348 28.5312L39.8105 26.6048C38.9053 26.8574 38.334 26.952 38.0312 26.952V28.952ZM40.3317 28.5356C40.8215 28.4078 41.1908 28.3129 41.4418 28.2501L40.9567 26.3099C40.6957 26.3751 40.3184 26.4722 39.8268 26.6004L40.3317 28.5356ZM41.5155 28.2287C41.6381 28.1878 41.7237 28.161 41.778 28.1455C41.8057 28.1376 41.8153 28.1355 41.8122 28.1362C41.8105 28.1366 41.7981 28.1393 41.7783 28.1424C41.768 28.144 41.7524 28.1461 41.7328 28.148C41.7141 28.1498 41.6844 28.152 41.6473 28.152V26.152C41.517 26.152 41.4057 26.1777 41.3783 26.1838C41.3272 26.1952 41.2754 26.2091 41.2285 26.2225C41.1334 26.2496 41.0164 26.2869 40.883 26.3313L41.5155 28.2287ZM41.6473 28.152C41.7391 28.152 41.6224 28.1747 41.4848 28.0434C41.3385 27.9037 41.3512 27.7663 41.3512 27.824H43.3512C43.3512 27.4337 43.2467 26.9603 42.8657 26.5966C42.4935 26.2413 42.0247 26.152 41.6473 26.152V28.152ZM41.3512 27.824C41.3512 27.7758 41.3658 27.7529 41.3588 27.7659C41.3489 27.7843 41.3141 27.8384 41.2228 27.9232L42.5837 29.3888C42.9897 29.0118 43.3512 28.4882 43.3512 27.824H41.3512ZM41.1961 27.9489C41.0076 28.1375 40.7341 28.3376 40.3512 28.5382L41.2793 30.3098C41.7924 30.0411 42.2443 29.7292 42.6104 29.3631L41.1961 27.9489ZM40.3853 28.5211C39.9997 28.7048 39.5564 28.8664 39.0513 29.0024L39.5712 30.9336C40.1754 30.7709 40.7348 30.5699 41.2452 30.3269L40.3853 28.5211ZM39.0513 29.0024C38.5749 29.1306 38.1183 29.192 37.6792 29.192V31.192C38.3069 31.192 38.9383 31.104 39.5712 30.9336L39.0513 29.0024ZM38.2233 22.936C38.4183 22.936 38.627 22.9222 38.8457 22.8979L38.6248 20.9101C38.4595 20.9285 38.3268 20.936 38.2233 20.936V22.936ZM38.8457 22.8979C39.1151 22.868 39.3777 22.8071 39.6304 22.7123L38.9281 20.8397C38.8395 20.8729 38.7394 20.8974 38.6248 20.9101L38.8457 22.8979ZM39.6854 22.6898C39.9718 22.5625 40.2388 22.3906 40.4664 22.1631L39.0521 20.7489C39.0237 20.7774 38.9707 20.8188 38.8731 20.8622L39.6854 22.6898ZM40.4664 22.1631C40.7942 21.8353 40.9512 21.4154 40.9512 20.976H38.9512C38.9512 20.9593 38.9544 20.9195 38.9748 20.8686C38.9956 20.8166 39.0253 20.7757 39.0521 20.7489L40.4664 22.1631ZM40.9512 20.976V20.4H38.9512V20.976H40.9512ZM40.9512 20.4C40.9512 19.4549 40.5848 18.6337 39.8714 18.0134L38.5591 19.5226C38.8271 19.7557 38.9512 20.0224 38.9512 20.4H40.9512ZM39.8895 18.0295C39.2448 17.4409 38.4789 17.096 37.6152 17.096V19.096C37.9036 19.096 38.2043 19.1991 38.541 19.5065L39.8895 18.0295ZM37.6152 17.096H37.2633V19.096H37.6152V17.096ZM37.2633 17.096C36.6935 17.096 36.1465 17.2324 35.632 17.4896L36.5265 19.2784C36.78 19.1516 37.0223 19.096 37.2633 19.096V17.096ZM35.632 17.4896C35.1395 17.7359 34.7025 18.0644 34.3242 18.4697L35.7863 19.8343C36.0054 19.5996 36.2511 19.4161 36.5265 19.2784L35.632 17.4896ZM34.2996 18.4971C33.9506 18.8998 33.6716 19.3532 33.4616 19.8519L35.3049 20.6281C35.4362 20.3161 35.6053 20.0442 35.8109 19.8069L34.2996 18.4971ZM33.4694 19.8339C33.2411 20.3477 33.1273 20.8916 33.1273 21.456H35.1273C35.1273 21.167 35.1841 20.9003 35.2971 20.6461L33.4694 19.8339ZM33.1273 21.456V21.712H35.1273V21.456H33.1273ZM33.1273 21.712C33.1273 21.9534 33.1856 22.2116 33.3342 22.4503C33.4809 22.686 33.6807 22.8472 33.879 22.9535C34.2458 23.15 34.668 23.192 35.0233 23.192V21.192C34.9157 21.192 34.8463 21.1846 34.807 21.1776C34.7655 21.1702 34.7797 21.1671 34.8235 21.1905C34.8725 21.2168 34.9603 21.278 35.0323 21.3937C35.1062 21.5124 35.1273 21.6306 35.1273 21.712H33.1273ZM35.0233 23.192H35.3433V21.192H35.0233V23.192ZM35.7905 23.0864L35.8545 23.0544L34.96 21.2656L34.896 21.2976L35.7905 23.0864ZM35.4795 23.1574L37.6875 22.9974L37.543 21.0026L35.335 21.1626L35.4795 23.1574ZM38.0625 22.8944C37.9828 22.9342 37.8734 22.968 37.7433 22.968V20.968C37.5278 20.968 37.333 21.0231 37.168 21.1056L38.0625 22.8944ZM37.7433 22.968C37.9204 22.968 38.0911 22.9382 38.2515 22.8847L37.619 20.9873C37.6514 20.9765 37.6941 20.968 37.7433 20.968V22.968ZM37.9352 22.936H38.2233V20.936H37.9352V22.936ZM47.741 28.432L48.6354 27.9848L47.741 28.432ZM46.621 19.344L47.5816 19.0659L47.576 19.0467L47.5697 19.0278L46.621 19.344ZM45.917 18.32L45.2099 19.0271V19.0271L45.917 18.32ZM46.013 16.4L46.5865 17.2192L46.013 16.4ZM46.493 16.08L47.0075 16.9375L47.0279 16.9252L47.0477 16.9121L46.493 16.08ZM46.781 15.792L47.6385 16.3065L47.6583 16.2736L47.6754 16.2392L46.781 15.792ZM46.941 15.312L45.9923 14.9958L45.976 15.0447L45.9648 15.0951L46.941 15.312ZM47.165 14.448L46.2015 14.1804L46.1945 14.2055L46.1888 14.2311L47.165 14.448ZM47.805 12.848L46.9985 12.2566L46.9913 12.2668L47.805 12.848ZM49.533 12.72L48.6893 13.2569L48.7012 13.2754L48.7138 13.2935L49.533 12.72ZM50.013 14.064L50.9831 13.8215L50.013 14.064ZM50.237 14.928L49.2722 15.1911L49.2873 15.2463L49.3085 15.2994L50.237 14.928ZM50.557 15.472L49.7977 16.1228L50.557 15.472ZM51.069 15.888L50.5545 16.7455L50.5874 16.7653L50.6218 16.7824L51.069 15.888ZM51.965 16.24L52.2893 15.294L52.2812 15.2913L51.965 16.24ZM51.901 18.16L52.2253 19.1059L52.2402 19.1008L52.2549 19.0953L51.901 18.16ZM50.429 19.184L49.5528 18.7021L49.5433 18.7193L49.5346 18.7368L50.429 19.184ZM50.365 26.928L51.1604 26.322L51.1456 26.3025L51.1299 26.2839L50.365 26.928ZM52.029 27.76L51.8914 28.7505L51.905 28.7524L51.9186 28.7539L52.029 27.76ZM52.509 29.584L53.0235 30.4416L53.0354 30.4343L52.509 29.584ZM51.037 28.968H50.525V30.968H51.037V28.968ZM50.525 28.968C49.9776 28.968 49.5856 28.8638 49.3041 28.7084C49.0318 28.5582 48.8085 28.3309 48.6354 27.9848L46.8466 28.8792C47.1855 29.5571 47.6822 30.0978 48.3379 30.4596C48.9844 30.8162 49.7284 30.968 50.525 30.968V28.968ZM48.6354 27.9848C48.2298 27.1735 47.973 25.786 47.973 23.696H45.973C45.973 25.8727 46.2282 27.6425 46.8466 28.8792L48.6354 27.9848ZM47.973 23.696C47.973 21.6094 47.8601 20.0283 47.5816 19.0659L45.6604 19.6221C45.8512 20.2811 45.973 21.6012 45.973 23.696H47.973ZM47.5697 19.0278C47.395 18.5037 47.0445 18.0333 46.6241 17.6129L45.2099 19.0271C45.5148 19.332 45.6337 19.5443 45.6723 19.6602L47.5697 19.0278ZM46.6241 17.6129C46.4835 17.4722 46.4117 17.3726 46.379 17.315C46.3467 17.2579 46.373 17.2785 46.373 17.36H44.373C44.373 18.0531 44.8033 18.6205 45.2099 19.0271L46.6241 17.6129ZM46.373 17.36V17.168H44.373V17.36H46.373ZM46.373 17.168C46.373 17.284 46.3437 17.3691 46.3234 17.4138C46.304 17.4564 46.2894 17.4704 46.3012 17.4562C46.3122 17.443 46.3384 17.4146 46.3879 17.3717C46.4368 17.3293 46.5019 17.2784 46.5865 17.2192L45.4395 15.5808C45.1895 15.7558 44.9506 15.9528 44.7648 16.1758C44.5881 16.3878 44.373 16.7274 44.373 17.168H46.373ZM46.5865 17.2192C46.7966 17.0721 46.9326 16.9824 47.0075 16.9375L45.9785 15.2225C45.84 15.3056 45.6561 15.4292 45.4395 15.5808L46.5865 17.2192ZM47.0477 16.9121C47.2704 16.7636 47.4825 16.5665 47.6385 16.3065L45.9235 15.2775C45.9515 15.2308 45.9716 15.2258 45.9383 15.2479L47.0477 16.9121ZM47.6754 16.2392C47.7867 16.0166 47.8629 15.7733 47.9172 15.5289L45.9648 15.0951C45.9338 15.2347 45.9033 15.3114 45.8866 15.3448L47.6754 16.2392ZM47.8897 15.6282C47.9704 15.386 48.054 15.0575 48.1412 14.6649L46.1888 14.2311C46.1054 14.6065 46.0396 14.854 45.9923 14.9958L47.8897 15.6282ZM48.1285 14.7156C48.3385 13.9596 48.515 13.5745 48.6187 13.4292L46.9913 12.2668C46.6683 12.7189 46.4181 13.4004 46.2015 14.1804L48.1285 14.7156ZM48.6114 13.4394C48.6316 13.4119 48.6472 13.3962 48.6566 13.3878C48.6657 13.3798 48.6709 13.377 48.6724 13.3762C48.6739 13.3755 48.6769 13.374 48.6839 13.3724C48.6912 13.3707 48.7067 13.368 48.733 13.368V11.368C48.0181 11.368 47.4142 11.6899 46.9986 12.2566L48.6114 13.4394ZM48.733 13.368C48.8283 13.368 48.8453 13.3832 48.8183 13.3713C48.8031 13.3646 48.7793 13.3516 48.7531 13.3294C48.7265 13.3069 48.705 13.2815 48.6893 13.2569L50.3767 12.1831C49.9781 11.5568 49.3153 11.368 48.733 11.368V13.368ZM48.7138 13.2935C48.7113 13.2899 48.7529 13.3553 48.8233 13.5523C48.8884 13.7348 48.9621 13.9834 49.0429 14.3065L50.9831 13.8215C50.8932 13.4619 50.8016 13.1452 50.7067 12.8797C50.6171 12.6287 50.5041 12.3635 50.3522 12.1465L48.7138 13.2935ZM49.0429 14.3065C49.1292 14.652 49.2058 14.9473 49.2722 15.1911L51.2018 14.6649C51.1402 14.4393 51.0674 14.1587 50.9831 13.8215L49.0429 14.3065ZM49.3085 15.2994C49.4279 15.5978 49.5875 15.8776 49.7977 16.1228L51.3163 14.8212C51.2705 14.7678 51.2168 14.6849 51.1655 14.5566L49.3085 15.2994ZM49.7977 16.1228C50.0114 16.3721 50.2723 16.5762 50.5545 16.7455L51.5835 15.0305C51.4391 14.9438 51.3586 14.8706 51.3163 14.8212L49.7977 16.1228ZM50.6218 16.7824C50.8966 16.9198 51.2462 17.0545 51.6488 17.1887L52.2812 15.2913C51.9158 15.1695 51.6681 15.0695 51.5162 14.9936L50.6218 16.7824ZM51.6407 17.1859C51.7926 17.238 51.9097 17.2881 51.9977 17.3333C52.0866 17.379 52.1339 17.4138 52.1542 17.4313C52.174 17.4482 52.1555 17.4377 52.1315 17.3925C52.1047 17.3418 52.085 17.2736 52.085 17.2H54.085C54.085 16.6383 53.7973 16.2055 53.4558 15.9127C53.1326 15.6357 52.7186 15.4412 52.2893 15.2941L51.6407 17.1859ZM52.085 17.2C52.085 16.9451 52.2397 16.854 52.1592 16.9192C52.0815 16.9822 51.8987 17.0917 51.5471 17.2247L52.2549 19.0953C52.6926 18.9297 53.1018 18.7298 53.4188 18.4728C53.733 18.218 54.085 17.7963 54.085 17.2H52.085ZM51.5767 17.2141C50.7326 17.5034 49.9627 17.9568 49.5528 18.7021L51.3052 19.6659C51.3646 19.5579 51.576 19.3286 52.2253 19.1059L51.5767 17.2141ZM49.5346 18.7368C49.0354 19.7351 48.853 21.3254 48.853 23.312H50.853C50.853 21.3306 51.0546 20.1689 51.3234 19.6312L49.5346 18.7368ZM48.853 23.312C48.853 24.3357 48.8961 25.1911 48.9909 25.8602C49.0383 26.1949 49.1015 26.505 49.188 26.7769C49.2708 27.0376 49.395 27.3286 49.6001 27.5721L51.1299 26.2839C51.1643 26.3247 51.1392 26.3131 51.094 26.1711C51.0525 26.0404 51.0091 25.8478 50.9711 25.5798C50.8952 25.0436 50.853 24.2936 50.853 23.312H48.853ZM49.5696 27.534C50.1233 28.2608 50.9625 28.6215 51.8914 28.7505L52.1666 26.7695C51.5595 26.6852 51.2894 26.4912 51.1604 26.322L49.5696 27.534ZM51.9186 28.7539C52.0608 28.7697 52.1598 28.7923 52.2247 28.8133C52.29 28.8344 52.3048 28.8489 52.293 28.84C52.2768 28.8279 52.2407 28.7942 52.2121 28.7363C52.1839 28.6791 52.181 28.6346 52.181 28.624H54.181C54.181 28.0721 53.9433 27.5777 53.493 27.24C53.0959 26.9422 52.6034 26.8177 52.1394 26.7661L51.9186 28.7539ZM52.181 28.624C52.181 28.6098 52.1835 28.5925 52.1888 28.5762C52.194 28.5606 52.1984 28.5559 52.1938 28.5625C52.1817 28.5798 52.1292 28.643 51.9826 28.7337L53.0354 30.4343C53.6328 30.0644 54.181 29.4747 54.181 28.624H52.181ZM51.9945 28.7265C51.7406 28.8789 51.4318 28.968 51.037 28.968V30.968C51.7516 30.968 52.4241 30.8011 53.0235 30.4415L51.9945 28.7265ZM64.2645 18.32L63.3866 17.8411L63.3826 17.8485L63.3787 17.856L64.2645 18.32ZM65.3205 17.136L65.9017 17.9497L65.9143 17.9408L65.9265 17.9314L65.3205 17.136ZM66.9205 16.368L67.1864 17.332L67.2017 17.3278L67.2169 17.3231L66.9205 16.368ZM70.0885 16.144L69.998 17.1399L70.0215 17.142L70.0451 17.1431L70.0885 16.144ZM71.4965 16.368L71.2218 17.3295L71.2432 17.3356L71.2649 17.3408L71.4965 16.368ZM72.6485 16.944L71.9936 17.6997L72.0084 17.7126L72.0238 17.7249L72.6485 16.944ZM70.9845 18.576L71.4317 17.6816L71.4217 17.6765L71.4115 17.6718L70.9845 18.576ZM67.2085 18.512L66.5469 17.7622L66.5356 17.7721L66.5246 17.7825L67.2085 18.512ZM66.8565 20.4L66.0085 20.93V20.93L66.8565 20.4ZM67.3685 20.912L66.7803 21.7207L66.8211 21.7504L66.8646 21.7758L67.3685 20.912ZM68.3605 21.392L67.9724 22.3136L67.9807 22.3171L67.9891 22.3205L68.3605 21.392ZM69.9605 22.032L70.3373 21.1057L70.3319 21.1035L69.9605 22.032ZM72.8085 23.664L72.1395 24.4073L72.1456 24.4127L72.1517 24.4181L72.8085 23.664ZM73.4165 27.824L72.5299 27.3614L72.5259 27.3691L72.5221 27.3768L73.4165 27.824ZM72.3925 29.072L73.0217 29.8492L72.3925 29.072ZM70.7925 29.936L71.0889 30.8911L71.1038 30.8864L71.1185 30.8814L70.7925 29.936ZM64.0725 28.752L63.215 29.2665L63.2207 29.276L63.2266 29.2853L64.0725 28.752ZM66.1525 27.44L66.6486 26.5718L66.6245 26.558L66.5997 26.5456L66.1525 27.44ZM70.3445 27.76L70.9377 28.5651L70.9445 28.56L70.3445 27.76ZM70.8245 25.744L69.9301 26.1912L69.9398 26.2106L69.9503 26.2296L70.8245 25.744ZM70.2805 25.168L69.6805 25.968L69.7027 25.9847L69.7258 26L70.2805 25.168ZM69.2565 24.624L68.8284 25.5277L68.8564 25.541L68.8851 25.5525L69.2565 24.624ZM67.7205 23.952L68.1029 23.028L68.0939 23.0243L68.0849 23.0208L67.7205 23.952ZM66.2805 23.312L65.8165 24.1978L65.8249 24.2022L65.8333 24.2064L66.2805 23.312ZM65.0645 22.512L64.3806 23.2415L64.404 23.2635L64.4288 23.2839L65.0645 22.512ZM64.2325 21.392L65.1269 20.9448L64.2325 21.392ZM64.9125 19.824C64.9125 19.415 64.9977 19.0753 65.1503 18.784L63.3787 17.856C63.0619 18.4607 62.9125 19.1237 62.9125 19.824H64.9125ZM65.1424 18.7989C65.3239 18.4661 65.5729 18.1846 65.9017 17.9497L64.7393 16.3223C64.1721 16.7274 63.7171 17.2352 63.3866 17.8411L65.1424 18.7989ZM65.9265 17.9314C66.2598 17.6775 66.6738 17.4734 67.1864 17.332L66.6546 15.404C65.9298 15.6039 65.2772 15.9118 64.7145 16.3406L65.9265 17.9314ZM67.2169 17.3231C67.7289 17.1642 68.2998 17.08 68.9365 17.08V15.08C68.1225 15.08 67.3495 15.1878 66.6241 15.4129L67.2169 17.3231ZM68.9365 17.08C69.1929 17.08 69.5437 17.0986 69.998 17.1399L70.179 15.1481C69.6946 15.1041 69.2774 15.08 68.9365 15.08V17.08ZM70.0451 17.1431C70.4617 17.1612 70.8531 17.2242 71.2218 17.3295L71.7712 15.4065C71.2439 15.2558 70.6967 15.1695 70.1319 15.1449L70.0451 17.1431ZM71.2649 17.3408C71.5704 17.4135 71.8056 17.5368 71.9936 17.6997L73.3034 16.1883C72.8514 15.7966 72.3186 15.5358 71.7281 15.3952L71.2649 17.3408ZM72.0238 17.7249C72.0824 17.7718 72.1285 17.8234 72.1285 18H74.1285C74.1285 17.2806 73.8546 16.6282 73.2732 16.1631L72.0238 17.7249ZM72.1285 18C72.1285 18.1419 72.1169 18.2372 72.1044 18.2957C72.0918 18.355 72.0828 18.3554 72.1018 18.3256C72.1251 18.2891 72.1741 18.234 72.2519 18.1934C72.3266 18.1545 72.3834 18.152 72.3925 18.152V20.152C72.9477 20.152 73.4645 19.9074 73.7872 19.4024C74.0611 18.9736 74.1285 18.4583 74.1285 18H72.1285ZM72.3925 18.152C72.5008 18.152 72.5538 18.1756 72.4958 18.1582C72.4582 18.1469 72.3922 18.1238 72.2911 18.0825C72.0901 18.0002 71.8063 17.8689 71.4317 17.6816L70.5373 19.4704C70.9307 19.6671 71.2655 19.8238 71.5339 19.9335C71.6675 19.9882 71.7988 20.0371 71.9212 20.0738C72.0232 20.1044 72.1989 20.152 72.3925 20.152V18.152ZM71.4115 17.6718C70.5418 17.261 69.6703 17.032 68.8085 17.032V19.032C69.312 19.032 69.8912 19.1656 70.5575 19.4802L71.4115 17.6718ZM68.8085 17.032C67.9698 17.032 67.1601 17.2211 66.5469 17.7622L67.8701 19.2618C67.9822 19.1629 68.2392 19.032 68.8085 19.032V17.032ZM66.5246 17.7825C65.9614 18.3105 65.6965 19.0006 65.6965 19.76H67.6965C67.6965 19.4954 67.773 19.3535 67.8924 19.2415L66.5246 17.7825ZM65.6965 19.76C65.6965 20.153 65.7788 20.5625 66.0085 20.93L67.7045 19.87C67.7209 19.8962 67.6965 19.879 67.6965 19.76H65.6965ZM66.0085 20.93C66.2061 21.2461 66.484 21.5052 66.7803 21.7207L67.9567 20.1033C67.7836 19.9774 67.7202 19.8952 67.7045 19.87L66.0085 20.93ZM66.8646 21.7758C67.1711 21.9546 67.5444 22.1334 67.9724 22.3136L68.7486 20.4704C68.366 20.3093 68.0779 20.1681 67.8724 20.0482L66.8646 21.7758ZM67.9891 22.3205C68.4158 22.4911 68.9491 22.7045 69.5891 22.9605L70.3319 21.1035C69.6919 20.8475 69.1586 20.6342 68.7319 20.4635L67.9891 22.3205ZM69.5837 22.9583C70.7898 23.4489 71.6206 23.9403 72.1395 24.4073L73.4775 22.9207C72.7164 22.2357 71.6485 21.6391 70.3373 21.1057L69.5837 22.9583ZM72.1517 24.4181C72.5356 24.7524 72.8005 25.2931 72.8005 26.224H74.8005C74.8005 24.8936 74.4041 23.7276 73.4653 22.9099L72.1517 24.4181ZM72.8005 26.224C72.8005 26.6457 72.7083 27.0195 72.5299 27.3614L74.3031 28.2866C74.6367 27.6472 74.8005 26.9543 74.8005 26.224H72.8005ZM72.5221 27.3768C72.3573 27.7063 72.1114 28.013 71.7633 28.2948L73.0217 29.8492C73.5696 29.4057 74.0064 28.8803 74.3109 28.2712L72.5221 27.3768ZM71.7633 28.2948C71.4172 28.5749 70.9898 28.8102 70.4665 28.9906L71.1185 30.8814C71.8325 30.6352 72.4718 30.2944 73.0217 29.8492L71.7633 28.2948ZM70.4961 28.9809C69.9868 29.139 69.4057 29.224 68.7445 29.224V31.224C69.5767 31.224 70.3609 31.117 71.0889 30.8911L70.4961 28.9809ZM68.7445 29.224C67.5506 29.224 66.6494 29.1053 66.005 28.9022C65.3612 28.6994 65.0585 28.4409 64.9184 28.2187L63.2266 29.2853C63.7052 30.0444 64.4905 30.522 65.404 30.8098C66.3169 31.0974 67.4425 31.224 68.7445 31.224V29.224ZM64.93 28.2375C64.8605 28.1216 64.8218 28.0354 64.8015 27.9769C64.7812 27.9182 64.7845 27.9021 64.7845 27.92H62.7845C62.7845 28.4131 62.9797 28.8743 63.215 29.2665L64.93 28.2375ZM64.7845 27.92C64.7845 27.7714 64.7963 27.6695 64.8097 27.6049C64.8233 27.5392 64.8341 27.5337 64.8178 27.5599C64.7973 27.5928 64.7503 27.6488 64.6711 27.6913C64.5942 27.7325 64.5338 27.736 64.5205 27.736V25.736C63.9529 25.736 63.4364 25.9939 63.1192 26.5041C62.8511 26.9354 62.7845 27.4541 62.7845 27.92H64.7845ZM64.5205 27.736C64.4676 27.736 64.4277 27.7311 64.4071 27.728C64.3849 27.7248 64.3701 27.7214 64.3648 27.7201C64.3553 27.7179 64.3607 27.7187 64.3859 27.7272C64.4364 27.7443 64.5201 27.7766 64.6444 27.8302C64.8909 27.9365 65.2421 28.1028 65.7053 28.3344L66.5997 26.5456C66.1242 26.3078 65.7341 26.1221 65.4366 25.9938C65.2889 25.9301 65.15 25.8744 65.0271 25.8328C64.9441 25.8047 64.7406 25.736 64.5205 25.736V27.736ZM65.6564 28.3082C66.6484 28.8751 67.6418 29.208 68.6165 29.208V27.208C68.0979 27.208 67.4486 27.0289 66.6486 26.5718L65.6564 28.3082ZM68.6165 29.208C69.4784 29.208 70.2954 29.0383 70.9377 28.5651L69.7513 26.9549C69.5829 27.079 69.2479 27.208 68.6165 27.208V29.208ZM70.9445 28.56C71.6346 28.0425 71.9845 27.3027 71.9845 26.448H69.9845C69.9845 26.7027 69.9078 26.8375 69.7445 26.96L70.9445 28.56ZM71.9845 26.448C71.9845 26.0445 71.9068 25.633 71.6987 25.2584L69.9503 26.2296C69.9555 26.239 69.9845 26.2968 69.9845 26.448H71.9845ZM71.7189 25.2968C71.515 24.889 71.195 24.5758 70.8352 24.3359L69.7258 26C69.878 26.1015 69.9207 26.1724 69.9301 26.1912L71.7189 25.2968ZM70.8805 24.368C70.5311 24.1059 70.1039 23.8859 69.6279 23.6955L68.8851 25.5525C69.2625 25.7034 69.5179 25.8461 69.6805 25.968L70.8805 24.368ZM69.6846 23.7203C69.2588 23.5186 68.7302 23.2876 68.1029 23.028L67.3382 24.876C67.9481 25.1284 68.4435 25.3454 68.8284 25.5277L69.6846 23.7203ZM68.0849 23.0208C67.6223 22.8397 67.1699 22.6387 66.7277 22.4176L65.8333 24.2064C66.3298 24.4547 66.8374 24.6803 67.3561 24.8832L68.0849 23.0208ZM66.7445 22.4262C66.3529 22.221 66.0058 21.9918 65.7002 21.7401L64.4288 23.2839C64.8485 23.6296 65.3121 23.9336 65.8165 24.1978L66.7445 22.4262ZM65.7484 21.7825C65.4951 21.545 65.2884 21.2677 65.1269 20.9448L63.3381 21.8392C63.6033 22.3696 63.9512 22.839 64.3806 23.2415L65.7484 21.7825ZM65.1269 20.9448C65.0005 20.6919 64.9125 20.3319 64.9125 19.824H62.9125C62.9125 20.5534 63.0378 21.2387 63.3381 21.8392L65.1269 20.9448ZM78.6785 28.432L79.5729 27.9848L78.6785 28.432ZM77.5585 19.344L78.5191 19.0659L78.5135 19.0467L78.5072 19.0278L77.5585 19.344ZM76.8545 18.32L76.1474 19.0271V19.0271L76.8545 18.32ZM76.9505 16.4L77.524 17.2192L76.9505 16.4ZM77.4305 16.08L77.945 16.9375L77.9654 16.9252L77.9852 16.9121L77.4305 16.08ZM77.7185 15.792L78.576 16.3065L78.5957 16.2736L78.6129 16.2392L77.7185 15.792ZM77.8785 15.312L76.9298 14.9958L76.9135 15.0447L76.9023 15.0951L77.8785 15.312ZM78.1025 14.448L77.139 14.1804L77.132 14.2055L77.1263 14.2311L78.1025 14.448ZM78.7425 12.848L77.936 12.2566L77.9288 12.2668L78.7425 12.848ZM80.4705 12.72L79.6268 13.2569L79.6386 13.2754L79.6513 13.2935L80.4705 12.72ZM80.9505 14.064L81.9206 13.8215L80.9505 14.064ZM81.1745 14.928L80.2097 15.1911L80.2248 15.2463L80.246 15.2994L81.1745 14.928ZM81.4945 15.472L80.7352 16.1228L81.4945 15.472ZM82.0065 15.888L81.492 16.7455L81.5249 16.7653L81.5593 16.7824L82.0065 15.888ZM82.9025 16.24L83.2268 15.294L83.2187 15.2913L82.9025 16.24ZM82.8385 18.16L83.1628 19.1059L83.1777 19.1008L83.1924 19.0953L82.8385 18.16ZM81.3665 19.184L80.4903 18.7021L80.4808 18.7193L80.4721 18.7368L81.3665 19.184ZM81.3025 26.928L82.0979 26.322L82.0831 26.3025L82.0674 26.2839L81.3025 26.928ZM82.9665 27.76L82.8289 28.7505L82.8425 28.7524L82.8561 28.7539L82.9665 27.76ZM83.4465 29.584L83.961 30.4416L83.9729 30.4343L83.4465 29.584ZM81.9745 28.968H81.4625V30.968H81.9745V28.968ZM81.4625 28.968C80.9151 28.968 80.5231 28.8638 80.2416 28.7084C79.9693 28.5582 79.746 28.3309 79.5729 27.9848L77.7841 28.8792C78.123 29.5571 78.6197 30.0978 79.2754 30.4596C79.9219 30.8162 80.6659 30.968 81.4625 30.968V28.968ZM79.5729 27.9848C79.1673 27.1735 78.9105 25.786 78.9105 23.696H76.9105C76.9105 25.8727 77.1657 27.6425 77.7841 28.8792L79.5729 27.9848ZM78.9105 23.696C78.9105 21.6094 78.7976 20.0283 78.5191 19.0659L76.5979 19.6221C76.7887 20.2811 76.9105 21.6012 76.9105 23.696H78.9105ZM78.5072 19.0278C78.3325 18.5037 77.982 18.0333 77.5616 17.6129L76.1474 19.0271C76.4523 19.332 76.5712 19.5443 76.6098 19.6602L78.5072 19.0278ZM77.5616 17.6129C77.421 17.4722 77.3492 17.3726 77.3165 17.315C77.2842 17.2579 77.3105 17.2785 77.3105 17.36H75.3105C75.3105 18.0531 75.7408 18.6205 76.1474 19.0271L77.5616 17.6129ZM77.3105 17.36V17.168H75.3105V17.36H77.3105ZM77.3105 17.168C77.3105 17.284 77.2812 17.3691 77.2609 17.4138C77.2415 17.4564 77.2269 17.4704 77.2387 17.4562C77.2497 17.443 77.2759 17.4146 77.3254 17.3717C77.3743 17.3293 77.4394 17.2784 77.524 17.2192L76.377 15.5808C76.127 15.7558 75.8881 15.9528 75.7023 16.1758C75.5256 16.3878 75.3105 16.7274 75.3105 17.168H77.3105ZM77.524 17.2192C77.7341 17.0721 77.8701 16.9824 77.945 16.9375L76.916 15.2225C76.7775 15.3056 76.5936 15.4292 76.377 15.5808L77.524 17.2192ZM77.9852 16.9121C78.2079 16.7636 78.42 16.5665 78.576 16.3065L76.861 15.2775C76.889 15.2308 76.9091 15.2258 76.8758 15.2479L77.9852 16.9121ZM78.6129 16.2392C78.7242 16.0166 78.8004 15.7733 78.8547 15.5289L76.9023 15.0951C76.8713 15.2347 76.8408 15.3114 76.8241 15.3448L78.6129 16.2392ZM78.8272 15.6282C78.9079 15.386 78.9915 15.0575 79.0787 14.6649L77.1263 14.2311C77.0429 14.6065 76.9771 14.854 76.9298 14.9958L78.8272 15.6282ZM79.066 14.7156C79.276 13.9596 79.4525 13.5745 79.5562 13.4292L77.9288 12.2668C77.6058 12.7189 77.3556 13.4004 77.139 14.1804L79.066 14.7156ZM79.5489 13.4394C79.5691 13.4119 79.5847 13.3962 79.5941 13.3878C79.6032 13.3798 79.6084 13.377 79.6099 13.3762C79.6114 13.3755 79.6144 13.374 79.6214 13.3724C79.6287 13.3707 79.6442 13.368 79.6705 13.368V11.368C78.9556 11.368 78.3517 11.6899 77.9361 12.2566L79.5489 13.4394ZM79.6705 13.368C79.7658 13.368 79.7829 13.3832 79.7558 13.3713C79.7406 13.3646 79.7168 13.3516 79.6906 13.3294C79.664 13.3069 79.6425 13.2815 79.6268 13.2569L81.3142 12.1831C80.9156 11.5568 80.2528 11.368 79.6705 11.368V13.368ZM79.6513 13.2935C79.6488 13.2899 79.6904 13.3553 79.7608 13.5523C79.8259 13.7348 79.8996 13.9834 79.9804 14.3065L81.9206 13.8215C81.8307 13.4619 81.7391 13.1452 81.6442 12.8797C81.5546 12.6287 81.4416 12.3635 81.2897 12.1465L79.6513 13.2935ZM79.9804 14.3065C80.0667 14.652 80.1432 14.9473 80.2097 15.1911L82.1393 14.6649C82.0778 14.4393 82.0049 14.1587 81.9206 13.8215L79.9804 14.3065ZM80.246 15.2994C80.3654 15.5978 80.525 15.8776 80.7352 16.1228L82.2538 14.8212C82.208 14.7678 82.1543 14.6849 82.103 14.5566L80.246 15.2994ZM80.7352 16.1228C80.9489 16.3721 81.2098 16.5762 81.492 16.7455L82.521 15.0305C82.3766 14.9438 82.2961 14.8706 82.2538 14.8212L80.7352 16.1228ZM81.5593 16.7824C81.8341 16.9198 82.1837 17.0545 82.5863 17.1887L83.2187 15.2913C82.8533 15.1695 82.6056 15.0695 82.4537 14.9936L81.5593 16.7824ZM82.5782 17.1859C82.7301 17.238 82.8472 17.2881 82.9352 17.3333C83.0241 17.379 83.0714 17.4138 83.0917 17.4313C83.1115 17.4482 83.093 17.4377 83.069 17.3925C83.0422 17.3418 83.0225 17.2736 83.0225 17.2H85.0225C85.0225 16.6383 84.7348 16.2055 84.3933 15.9127C84.0701 15.6357 83.6561 15.4412 83.2268 15.2941L82.5782 17.1859ZM83.0225 17.2C83.0225 16.9451 83.1772 16.854 83.0967 16.9192C83.019 16.9822 82.8362 17.0917 82.4846 17.2247L83.1924 19.0953C83.6301 18.9297 84.0393 18.7298 84.3563 18.4728C84.6705 18.218 85.0225 17.7963 85.0225 17.2H83.0225ZM82.5142 17.2141C81.6701 17.5034 80.9002 17.9568 80.4903 18.7021L82.2427 19.6659C82.3021 19.5579 82.5135 19.3286 83.1628 19.1059L82.5142 17.2141ZM80.4721 18.7368C79.9729 19.7351 79.7905 21.3254 79.7905 23.312H81.7905C81.7905 21.3306 81.9921 20.1689 82.2609 19.6312L80.4721 18.7368ZM79.7905 23.312C79.7905 24.3357 79.8336 25.1911 79.9284 25.8602C79.9758 26.1949 80.039 26.505 80.1255 26.7769C80.2083 27.0376 80.3325 27.3286 80.5376 27.5721L82.0674 26.2839C82.1018 26.3247 82.0767 26.3131 82.0315 26.1711C81.99 26.0404 81.9466 25.8478 81.9086 25.5798C81.8327 25.0436 81.7905 24.2936 81.7905 23.312H79.7905ZM80.5071 27.534C81.0608 28.2608 81.9 28.6215 82.8289 28.7505L83.1041 26.7695C82.497 26.6852 82.2269 26.4912 82.0979 26.322L80.5071 27.534ZM82.8561 28.7539C82.9983 28.7697 83.0973 28.7923 83.1622 28.8133C83.2275 28.8344 83.2423 28.8489 83.2305 28.84C83.2143 28.8279 83.1782 28.7942 83.1496 28.7363C83.1214 28.6791 83.1185 28.6346 83.1185 28.624H85.1185C85.1185 28.0721 84.8808 27.5777 84.4305 27.24C84.0334 26.9422 83.5409 26.8177 83.0769 26.7661L82.8561 28.7539ZM83.1185 28.624C83.1185 28.6098 83.121 28.5925 83.1263 28.5762C83.1315 28.5606 83.1359 28.5559 83.1313 28.5625C83.1192 28.5798 83.0667 28.643 82.9201 28.7337L83.9729 30.4343C84.5703 30.0644 85.1185 29.4747 85.1185 28.624H83.1185ZM82.932 28.7265C82.6781 28.8789 82.3693 28.968 81.9745 28.968V30.968C82.6891 30.968 83.3616 30.8011 83.961 30.4415L82.932 28.7265ZM96.1872 29.808L95.871 30.7567L95.92 30.773L95.9703 30.7842L96.1872 29.808ZM95.4512 29.52L95.8452 28.6009L95.8278 28.5934L95.8102 28.5867L95.4512 29.52ZM92.8593 29.68L93.2182 30.6133L92.8593 29.68ZM88.8913 29.904L88.5353 30.8385L88.8913 29.904ZM87.7073 29.168L87.0001 29.8751L87.0115 29.8865L87.0233 29.8975L87.7073 29.168ZM86.9072 28.016L85.9881 28.4099L85.9959 28.4281L86.0044 28.4459L86.9072 28.016ZM91.0352 22.16L91.2135 23.144L91.2225 23.1424L91.2314 23.1406L91.0352 22.16ZM93.9792 21.552L94.4265 22.4464L94.4349 22.4422L94.4433 22.4378L93.9792 21.552ZM94.0752 18.8L93.3493 19.4877L93.3586 19.4976L93.3681 19.5071L94.0752 18.8ZM90.2032 18.832L90.6505 19.7264L90.2032 18.832ZM87.8672 17.52L88.5744 18.2271L87.8672 17.52ZM88.8913 16.848L89.3016 17.7599L89.3202 17.7515L89.3385 17.7424L88.8913 16.848ZM90.3633 16.336L90.5881 17.3104L90.3633 16.336ZM95.1633 16.656L94.716 17.5505L94.727 17.5558L95.1633 16.656ZM96.7633 18.032L95.917 18.5648L95.9256 18.5785L95.9347 18.5919L96.7633 18.032ZM97.6592 26.704L98.6482 26.5557L98.647 26.5476L98.6456 26.5396L97.6592 26.704ZM98.1393 27.92L98.9925 27.3986L98.9822 27.3817L98.9713 27.3653L98.1393 27.92ZM94.0113 27.44L93.2638 26.7756L93.2568 26.7835L93.25 26.7915L94.0113 27.44ZM93.4993 23.376V22.376H93.4552L93.4114 22.3799L93.4993 23.376ZM92.4112 23.472V24.472H92.4553L92.4991 24.4681L92.4112 23.472ZM90.2992 24.176L89.6533 23.4126L89.6459 23.4189L89.6386 23.4253L90.2992 24.176ZM90.0113 27.696L89.2463 28.3401L89.256 28.3516L89.266 28.3628L90.0113 27.696ZM97.4912 28.944C97.4912 28.9237 97.4992 28.8613 97.5432 28.7953C97.583 28.7356 97.6161 28.7276 97.58 28.7456C97.4797 28.7958 97.2028 28.872 96.6353 28.872V30.872C97.305 30.872 97.9562 30.7936 98.4745 30.5344C98.7478 30.3978 99.0128 30.1964 99.2073 29.9047C99.406 29.6067 99.4912 29.2737 99.4912 28.944H97.4912ZM96.6353 28.872C96.6441 28.872 96.63 28.8725 96.5847 28.8661C96.5416 28.8599 96.4822 28.8492 96.4042 28.8318L95.9703 30.7842C96.1846 30.8318 96.4184 30.872 96.6353 30.872V28.872ZM96.5035 28.8593C96.3486 28.8077 96.1316 28.7236 95.8452 28.6009L95.0573 30.4391C95.3682 30.5724 95.6419 30.6803 95.871 30.7567L96.5035 28.8593ZM95.8102 28.5867C95.5201 28.4751 95.263 28.3846 95.0454 28.3206C94.8559 28.2649 94.6035 28.2 94.3633 28.2V30.2C94.3132 30.2 94.2959 30.1935 94.3311 30.2006C94.3601 30.2064 94.4087 30.2181 94.4811 30.2394C94.6262 30.282 94.8277 30.3516 95.0923 30.4533L95.8102 28.5867ZM94.3633 28.2C94.1983 28.2 94.0409 28.2336 93.9416 28.2572C93.8242 28.2852 93.6935 28.3232 93.5552 28.3673C93.2777 28.4559 92.9239 28.5837 92.5003 28.7467L93.2182 30.6133C93.6267 30.4563 93.9394 30.3441 94.1633 30.2727C94.2757 30.2368 94.3543 30.2148 94.4049 30.2028C94.4736 30.1864 94.4429 30.2 94.3633 30.2V28.2ZM92.5003 28.7467C91.7454 29.037 91.1233 29.16 90.6192 29.16V31.16C91.4379 31.16 92.3091 30.963 93.2182 30.6133L92.5003 28.7467ZM90.6192 29.16H90.2992V31.16H90.6192V29.16ZM90.2992 29.16C89.9273 29.16 89.5789 29.0958 89.2472 28.9695L88.5353 30.8385C89.0996 31.0535 89.6898 31.16 90.2992 31.16V29.16ZM89.2472 28.9695C88.9178 28.844 88.6352 28.6672 88.3912 28.4385L87.0233 29.8975C87.4619 30.3088 87.9687 30.6227 88.5353 30.8385L89.2472 28.9695ZM88.4144 28.4609C88.1823 28.2289 87.9792 27.9411 87.8101 27.5861L86.0044 28.4459C86.262 28.9869 86.5922 29.4671 87.0001 29.8751L88.4144 28.4609ZM87.8264 27.6221C87.6965 27.3191 87.6192 26.9448 87.6192 26.48H85.6192C85.6192 27.1672 85.734 27.8169 85.9881 28.4099L87.8264 27.6221ZM87.6192 26.48C87.6192 25.5347 87.9063 24.8599 88.4225 24.3548C88.9645 23.8247 89.8534 23.3904 91.2135 23.144L90.857 21.176C89.2731 21.463 87.954 22.0153 87.024 22.9252C86.0682 23.8601 85.6192 25.0786 85.6192 26.48H87.6192ZM91.2314 23.1406C92.1919 22.9485 92.9197 22.8013 93.4135 22.6993C93.6599 22.6484 93.8511 22.6082 93.9849 22.5789C94.0511 22.5644 94.1083 22.5515 94.153 22.5408C94.1745 22.5356 94.2002 22.5293 94.2254 22.5223C94.2376 22.519 94.257 22.5135 94.2793 22.5063C94.2868 22.5039 94.3518 22.4838 94.4265 22.4464L93.532 20.6576C93.604 20.6216 93.6646 20.6031 93.6657 20.6028C93.6817 20.5976 93.6929 20.5945 93.6951 20.5939C93.7003 20.5925 93.6986 20.593 93.6855 20.5962C93.6609 20.6021 93.6194 20.6116 93.5576 20.6251C93.4354 20.6518 93.2533 20.6902 93.009 20.7407C92.5215 20.8413 91.7986 20.9875 90.8391 21.1794L91.2314 23.1406ZM94.4433 22.4378C95.2872 21.9958 95.6513 21.1919 95.6513 20.304H93.6513C93.6513 20.48 93.6183 20.5611 93.6028 20.5899C93.5922 20.6096 93.5755 20.6346 93.5152 20.6662L94.4433 22.4378ZM95.6513 20.304C95.6513 19.4603 95.3805 18.691 94.7824 18.0929L93.3681 19.5071C93.538 19.677 93.6513 19.9104 93.6513 20.304H95.6513ZM94.8012 18.1123C94.1936 17.471 93.3883 17.192 92.5072 17.192V19.192C92.9489 19.192 93.1889 19.3184 93.3493 19.4877L94.8012 18.1123ZM92.5072 17.192C91.6202 17.192 90.6963 17.4674 89.756 17.9376L90.6505 19.7264C91.4168 19.3432 92.029 19.192 92.5072 19.192V17.192ZM89.756 17.9376C89.3253 18.1529 88.9856 18.3033 88.7295 18.3977C88.4466 18.5019 88.3534 18.504 88.3792 18.504V20.504C88.7251 20.504 89.0959 20.3941 89.421 20.2743C89.7729 20.1447 90.1852 19.9591 90.6505 19.7264L89.756 17.9376ZM88.3792 18.504C88.3422 18.504 88.3572 18.4978 88.3994 18.5169C88.4473 18.5386 88.4879 18.5737 88.5123 18.6068C88.5324 18.634 88.5237 18.6356 88.5104 18.5815C88.4969 18.5265 88.4833 18.4325 88.4833 18.288H86.4833C86.4833 18.7868 86.5699 19.3422 86.9022 19.7932C87.2765 20.3012 87.8299 20.504 88.3792 20.504V18.504ZM88.4833 18.288C88.4833 18.3082 88.4806 18.3257 88.4774 18.3385C88.4743 18.351 88.4716 18.3554 88.4737 18.3512C88.4788 18.3409 88.5032 18.2983 88.5744 18.2271L87.1601 16.8129C86.7951 17.1779 86.4833 17.6732 86.4833 18.288H88.4833ZM88.5744 18.2271C88.7237 18.0778 88.9547 17.916 89.3016 17.7599L88.4809 15.9361C87.9744 16.164 87.5228 16.4502 87.1601 16.8129L88.5744 18.2271ZM89.3385 17.7424C89.6824 17.5705 90.0961 17.4239 90.5881 17.3104L90.1384 15.3616C89.521 15.5041 88.9534 15.6989 88.444 15.9536L89.3385 17.7424ZM90.5881 17.3104C91.0655 17.2002 91.5659 17.144 92.0912 17.144V15.144C91.422 15.144 90.7703 15.2158 90.1384 15.3616L90.5881 17.3104ZM92.0912 17.144H92.7952V15.144H92.0912V17.144ZM92.7952 17.144C93.5629 17.144 94.1944 17.2896 94.716 17.5504L95.6105 15.7616C94.7667 15.3397 93.8196 15.144 92.7952 15.144V17.144ZM94.727 17.5558C95.2884 17.828 95.6682 18.1696 95.917 18.5648L97.6095 17.4992C97.133 16.7424 96.4461 16.1667 95.5995 15.7562L94.727 17.5558ZM95.9347 18.5919C96.0683 18.7896 96.2444 19.2631 96.3733 20.1654C96.4973 21.0336 96.5632 22.1842 96.5632 23.632H98.5632C98.5632 22.1358 98.4958 20.8811 98.3532 19.8826C98.2154 18.9183 97.9916 18.0637 97.5918 17.4721L95.9347 18.5919ZM96.5632 23.632C96.5632 25.2611 96.592 26.3834 96.6729 26.8684L98.6456 26.5396C98.5985 26.2566 98.5632 25.3309 98.5632 23.632H96.5632ZM96.6703 26.8523C96.7576 27.4343 96.9755 27.9771 97.3072 28.4747L98.9713 27.3653C98.791 27.0949 98.6889 26.827 98.6482 26.5557L96.6703 26.8523ZM97.286 28.4415C97.4698 28.7423 97.4912 28.9001 97.4912 28.944H99.4912C99.4912 28.3906 99.278 27.8657 98.9925 27.3986L97.286 28.4415ZM91.5472 29.304H91.9632V27.304H91.5472V29.304ZM91.9632 29.304C93.0801 29.304 94.0612 28.9235 94.7725 28.0885L93.25 26.7915C92.98 27.1085 92.5957 27.304 91.9632 27.304V29.304ZM94.7587 28.1044C95.4895 27.2821 95.7793 26.1766 95.7793 24.944H93.7793C93.7793 25.8874 93.557 26.4459 93.2638 26.7756L94.7587 28.1044ZM95.7793 24.944V24.4H93.7793V24.944H95.7793ZM95.7793 24.4C95.7793 23.9421 95.6862 23.4122 95.3275 22.9871C94.9414 22.5295 94.4061 22.376 93.9153 22.376V24.376C93.9626 24.376 93.9592 24.3832 93.9258 24.3701C93.9086 24.3632 93.8863 24.3521 93.8622 24.335C93.838 24.3177 93.8166 24.2977 93.799 24.2769C93.763 24.2343 93.758 24.2063 93.7626 24.2227C93.768 24.2418 93.7793 24.2964 93.7793 24.4H95.7793ZM93.9153 22.376H93.4993V24.376H93.9153V22.376ZM93.4114 22.3799L92.3234 22.4759L92.4991 24.4681L93.5871 24.3721L93.4114 22.3799ZM92.4112 22.472C91.3648 22.472 90.4191 22.7646 89.6533 23.4126L90.9452 24.9394C91.2887 24.6487 91.7511 24.472 92.4112 24.472V22.472ZM89.6386 23.4253C88.9076 24.0685 88.4993 24.9 88.4993 25.872H90.4993C90.4993 25.5213 90.6242 25.2221 90.9599 24.9267L89.6386 23.4253ZM88.4993 25.872V26.352H90.4993V25.872H88.4993ZM88.4993 26.352C88.4993 27.0979 88.7663 27.77 89.2463 28.3401L90.7762 27.0519C90.5736 26.8113 90.4993 26.5874 90.4993 26.352H88.4993ZM89.266 28.3628C89.8587 29.0252 90.6681 29.304 91.5472 29.304V27.304C91.1038 27.304 90.8891 27.1774 90.7565 27.0292L89.266 28.3628ZM106.207 20.432L105.34 19.9335L105.336 19.9418L105.331 19.9501L106.207 20.432ZM105.535 25.328L106.532 25.245L105.535 25.328ZM105.599 26.032L104.604 26.1315L104.61 26.1908L104.623 26.2489L105.599 26.032ZM105.727 26.608L104.751 26.8249L104.766 26.8934L104.791 26.9591L105.727 26.608ZM105.919 27.248L106.903 27.0691L106.897 27.0371L106.889 27.0055L105.919 27.248ZM106.047 27.92L107.028 27.7239L106.047 27.92ZM105.471 29.488L106.016 30.3264L106.031 30.3171L106.045 30.3072L105.471 29.488ZM103.807 29.904L103.666 30.8939L103.736 30.904H103.807V29.904ZM103.583 29.872L103.725 28.882L103.654 28.872H103.583V29.872ZM102.239 29.52L101.588 30.2793L101.605 30.2931L101.621 30.3063L102.239 29.52ZM102.079 27.536L103.02 27.8747L103.028 27.8526L103.035 27.8301L102.079 27.536ZM102.367 25.968L103.366 26.0114L102.367 25.968ZM102.399 21.68H103.399V21.6583L103.398 21.6366L102.399 21.68ZM102.367 20.944H101.367V20.9657L101.368 20.9874L102.367 20.944ZM102.111 18.576L103.051 18.2343L103.035 18.1914L103.016 18.1502L102.111 18.576ZM105.375 17.712L104.579 18.3171L104.62 18.3711L104.668 18.4191L105.375 17.712ZM106.495 17.584L105.945 16.749L105.937 16.7544L105.929 16.76L106.495 17.584ZM110.271 17.04L109.593 17.7748L109.622 17.8018L109.653 17.8263L110.271 17.04ZM109.375 19.248L109.211 20.2344L109.292 20.248H109.375V19.248ZM108.223 18.152C106.951 18.152 105.977 18.8269 105.34 19.9335L107.074 20.9305C107.419 20.3304 107.789 20.152 108.223 20.152V18.152ZM105.331 19.9501C104.738 21.0278 104.503 22.546 104.503 24.368H106.503C106.503 22.6486 106.738 21.5429 107.083 20.9139L105.331 19.9501ZM104.503 24.368C104.503 24.7676 104.514 25.1175 104.539 25.411L106.532 25.245C106.514 25.0265 106.503 24.7364 106.503 24.368H104.503ZM104.539 25.411C104.56 25.6715 104.582 25.9117 104.604 26.1315L106.594 25.9325C106.574 25.7256 106.553 25.4965 106.532 25.245L104.539 25.411ZM104.623 26.2489C104.666 26.4409 104.708 26.6329 104.751 26.8249L106.703 26.3911C106.661 26.1991 106.618 26.0071 106.575 25.8151L104.623 26.2489ZM104.791 26.9591C104.837 27.0824 104.891 27.2566 104.949 27.4905L106.889 27.0055C106.82 26.7274 106.745 26.4749 106.664 26.2569L104.791 26.9591ZM104.935 27.4269C104.979 27.6668 105.023 27.8965 105.067 28.1161L107.028 27.7239C106.986 27.5168 106.945 27.2986 106.903 27.0691L104.935 27.4269ZM105.067 28.1161C105.1 28.2815 105.111 28.4062 105.111 28.496H107.111C107.111 28.2444 107.08 27.9851 107.028 27.7239L105.067 28.1161ZM105.111 28.496C105.111 28.487 105.113 28.4765 105.115 28.4679C105.118 28.4599 105.119 28.4617 105.111 28.4739C105.093 28.5015 105.038 28.5709 104.898 28.6688L106.045 30.3072C106.614 29.9086 107.111 29.312 107.111 28.496H105.111ZM104.926 28.6496C104.709 28.7911 104.361 28.904 103.807 28.904V30.904C104.619 30.904 105.381 30.7396 106.016 30.3264L104.926 28.6496ZM103.949 28.9141L103.725 28.882L103.442 30.8619L103.666 30.8939L103.949 28.9141ZM103.583 28.872H103.327V30.872H103.583V28.872ZM103.327 28.872C103.095 28.872 102.958 28.8129 102.857 28.7337L101.621 30.3063C102.118 30.6964 102.706 30.872 103.327 30.872V28.872ZM102.89 28.7607C102.812 28.6937 102.788 28.6529 102.784 28.6459C102.782 28.643 102.785 28.647 102.787 28.657C102.79 28.6673 102.791 28.6783 102.791 28.688H100.791C100.791 29.3645 101.143 29.8974 101.588 30.2793L102.89 28.7607ZM102.791 28.688V28.464H100.791V28.688H102.791ZM102.791 28.464C102.791 28.5344 102.783 28.5831 102.782 28.5889C102.779 28.6017 102.778 28.6048 102.781 28.5944C102.786 28.5734 102.797 28.532 102.818 28.4644C102.86 28.3306 102.926 28.1361 103.02 27.8747L101.138 27.1973C101.04 27.4693 100.963 27.696 100.908 27.8716C100.881 27.9586 100.856 28.0439 100.838 28.1216C100.825 28.1716 100.791 28.3108 100.791 28.464H102.791ZM103.035 27.8301C103.226 27.2083 103.341 26.6009 103.366 26.0114L101.368 25.9246C101.351 26.3164 101.273 26.7543 101.123 27.2419L103.035 27.8301ZM103.366 26.0114C103.389 25.4996 103.399 24.811 103.399 23.952H101.399C101.399 24.7997 101.389 25.4551 101.368 25.9246L103.366 26.0114ZM103.399 23.952V21.68H101.399V23.952H103.399ZM103.398 21.6366L103.366 20.9006L101.368 20.9874L101.4 21.7234L103.398 21.6366ZM103.367 20.944V19.952H101.367V20.944H103.367ZM103.367 19.952C103.367 19.3749 103.257 18.8006 103.051 18.2343L101.171 18.9177C101.307 19.29 101.367 19.6331 101.367 19.952H103.367ZM103.016 18.1502C102.944 17.9967 102.9 17.8822 102.875 17.8019C102.848 17.7151 102.855 17.7033 102.855 17.744H100.855C100.855 18.1716 101.027 18.62 101.206 19.0018L103.016 18.1502ZM102.855 17.744C102.855 17.7532 102.852 17.8096 102.811 17.8797C102.771 17.9499 102.724 17.9811 102.716 17.9859C102.714 17.987 102.751 17.9659 102.854 17.946C102.956 17.9263 103.1 17.912 103.295 17.912V15.912C102.752 15.912 102.181 15.9847 101.715 16.2541C101.166 16.5716 100.855 17.1098 100.855 17.744H102.855ZM103.295 17.912C104.116 17.912 104.439 18.1326 104.579 18.3171L106.171 17.1069C105.501 16.2248 104.437 15.912 103.295 15.912V17.912ZM104.668 18.4191C104.889 18.6402 105.27 18.936 105.791 18.936V16.936C105.927 16.936 106.022 16.9763 106.065 16.9995C106.105 17.021 106.11 17.0326 106.082 17.0049L104.668 18.4191ZM105.791 18.936C106.102 18.936 106.371 18.8124 106.51 18.7424C106.686 18.6548 106.872 18.5384 107.062 18.408L105.929 16.76C105.777 16.8642 105.675 16.9238 105.616 16.9536C105.587 16.9681 105.583 16.9679 105.599 16.9626C105.609 16.9596 105.629 16.9536 105.658 16.948C105.687 16.9426 105.732 16.936 105.791 16.936V18.936ZM107.046 18.419C107.943 17.8272 108.505 17.656 108.799 17.656V15.656C107.898 15.656 106.924 16.1034 105.945 16.749L107.046 18.419ZM108.799 17.656H109.023V15.656H108.799V17.656ZM109.023 17.656C109.443 17.656 109.571 17.7545 109.593 17.7748L110.95 16.3052C110.417 15.8135 109.713 15.656 109.023 15.656V17.656ZM109.653 17.8263C109.689 17.8543 109.698 17.8716 109.701 17.8789C109.705 17.8882 109.719 17.9219 109.719 18H111.719C111.719 17.3116 111.447 16.6922 110.889 16.2537L109.653 17.8263ZM109.719 18C109.719 18.121 109.703 18.1842 109.694 18.2081C109.687 18.2265 109.688 18.2171 109.703 18.2032C109.734 18.1742 109.687 18.248 109.375 18.248V20.248C109.96 20.248 110.584 20.1138 111.064 19.6688C111.557 19.2108 111.719 18.5899 111.719 18H109.719ZM109.54 18.2616C109.102 18.1887 108.663 18.152 108.223 18.152V20.152C108.551 20.152 108.88 20.1793 109.211 20.2344L109.54 18.2616ZM115.147 28.432L116.042 27.9848L115.147 28.432ZM114.027 19.344L114.988 19.0659L114.982 19.0467L114.976 19.0278L114.027 19.344ZM113.323 18.32L112.616 19.0271V19.0271L113.323 18.32ZM113.419 16.4L113.993 17.2192L113.419 16.4ZM113.899 16.08L114.414 16.9375L114.434 16.9252L114.454 16.9121L113.899 16.08ZM114.187 15.792L115.045 16.3065L115.064 16.2736L115.082 16.2392L114.187 15.792ZM114.347 15.312L113.399 14.9958L113.382 15.0447L113.371 15.0951L114.347 15.312ZM114.571 14.448L113.608 14.1804L113.601 14.2055L113.595 14.2311L114.571 14.448ZM115.211 12.848L114.405 12.2566L114.398 12.2668L115.211 12.848ZM116.939 12.72L116.096 13.2569L116.107 13.2754L116.12 13.2935L116.939 12.72ZM117.419 14.064L118.389 13.8215L117.419 14.064ZM117.643 14.928L116.678 15.1911L116.694 15.2463L116.715 15.2994L117.643 14.928ZM117.963 15.472L117.204 16.1228L117.963 15.472ZM118.475 15.888L117.961 16.7455L117.994 16.7653L118.028 16.7824L118.475 15.888ZM119.371 16.24L119.696 15.294L119.687 15.2913L119.371 16.24ZM119.307 18.16L119.632 19.1059L119.646 19.1008L119.661 19.0953L119.307 18.16ZM117.835 19.184L116.959 18.7021L116.95 18.7193L116.941 18.7368L117.835 19.184ZM117.771 26.928L118.567 26.322L118.552 26.3025L118.536 26.2839L117.771 26.928ZM119.435 27.76L119.298 28.7505L119.311 28.7524L119.325 28.7539L119.435 27.76ZM119.915 29.584L120.43 30.4416L120.442 30.4343L119.915 29.584ZM118.443 28.968H117.931V30.968H118.443V28.968ZM117.931 28.968C117.384 28.968 116.992 28.8638 116.71 28.7084C116.438 28.5582 116.215 28.3309 116.042 27.9848L114.253 28.8792C114.592 29.5571 115.088 30.0978 115.744 30.4596C116.391 30.8162 117.135 30.968 117.931 30.968V28.968ZM116.042 27.9848C115.636 27.1735 115.379 25.786 115.379 23.696H113.379C113.379 25.8727 113.634 27.6425 114.253 28.8792L116.042 27.9848ZM115.379 23.696C115.379 21.6094 115.266 20.0283 114.988 19.0659L113.067 19.6221C113.257 20.2811 113.379 21.6012 113.379 23.696H115.379ZM114.976 19.0278C114.801 18.5037 114.451 18.0333 114.03 17.6129L112.616 19.0271C112.921 19.332 113.04 19.5443 113.079 19.6602L114.976 19.0278ZM114.03 17.6129C113.89 17.4722 113.818 17.3726 113.785 17.315C113.753 17.2579 113.779 17.2785 113.779 17.36H111.779C111.779 18.0531 112.21 18.6205 112.616 19.0271L114.03 17.6129ZM113.779 17.36V17.168H111.779V17.36H113.779ZM113.779 17.168C113.779 17.284 113.75 17.3691 113.73 17.4138C113.71 17.4564 113.696 17.4704 113.707 17.4562C113.718 17.443 113.745 17.4146 113.794 17.3717C113.843 17.3293 113.908 17.2784 113.993 17.2192L112.846 15.5808C112.596 15.7558 112.357 15.9528 112.171 16.1758C111.994 16.3878 111.779 16.7274 111.779 17.168H113.779ZM113.993 17.2192C114.203 17.0721 114.339 16.9824 114.414 16.9375L113.385 15.2225C113.246 15.3056 113.062 15.4292 112.846 15.5808L113.993 17.2192ZM114.454 16.9121C114.677 16.7636 114.889 16.5665 115.045 16.3065L113.33 15.2775C113.358 15.2308 113.378 15.2258 113.345 15.2479L114.454 16.9121ZM115.082 16.2392C115.193 16.0166 115.269 15.7733 115.323 15.5289L113.371 15.0951C113.34 15.2347 113.31 15.3114 113.293 15.3448L115.082 16.2392ZM115.296 15.6282C115.377 15.386 115.46 15.0575 115.547 14.6649L113.595 14.2311C113.512 14.6065 113.446 14.854 113.399 14.9958L115.296 15.6282ZM115.535 14.7156C115.745 13.9596 115.921 13.5745 116.025 13.4292L114.398 12.2668C114.075 12.7189 113.824 13.4004 113.608 14.1804L115.535 14.7156ZM116.018 13.4394C116.038 13.4119 116.053 13.3962 116.063 13.3878C116.072 13.3798 116.077 13.377 116.079 13.3762C116.08 13.3755 116.083 13.374 116.09 13.3724C116.097 13.3707 116.113 13.368 116.139 13.368V11.368C115.424 11.368 114.82 11.6899 114.405 12.2566L116.018 13.4394ZM116.139 13.368C116.235 13.368 116.252 13.3832 116.225 13.3713C116.209 13.3646 116.186 13.3516 116.159 13.3294C116.133 13.3069 116.111 13.2815 116.096 13.2569L117.783 12.1831C117.384 11.5568 116.722 11.368 116.139 11.368V13.368ZM116.12 13.2935C116.118 13.2899 116.159 13.3553 116.23 13.5523C116.295 13.7348 116.368 13.9834 116.449 14.3065L118.389 13.8215C118.299 13.4619 118.208 13.1452 118.113 12.8797C118.023 12.6287 117.91 12.3635 117.758 12.1465L116.12 13.2935ZM116.449 14.3065C116.535 14.652 116.612 14.9473 116.678 15.1911L118.608 14.6649C118.547 14.4393 118.474 14.1587 118.389 13.8215L116.449 14.3065ZM116.715 15.2994C116.834 15.5978 116.994 15.8776 117.204 16.1228L118.723 14.8212C118.677 14.7678 118.623 14.6849 118.572 14.5566L116.715 15.2994ZM117.204 16.1228C117.418 16.3721 117.679 16.5762 117.961 16.7455L118.99 15.0305C118.845 14.9438 118.765 14.8706 118.723 14.8212L117.204 16.1228ZM118.028 16.7824C118.303 16.9198 118.652 17.0545 119.055 17.1887L119.687 15.2913C119.322 15.1695 119.074 15.0695 118.922 14.9936L118.028 16.7824ZM119.047 17.1859C119.199 17.238 119.316 17.2881 119.404 17.3333C119.493 17.379 119.54 17.4138 119.56 17.4313C119.58 17.4482 119.562 17.4377 119.538 17.3925C119.511 17.3418 119.491 17.2736 119.491 17.2H121.491C121.491 16.6383 121.204 16.2055 120.862 15.9127C120.539 15.6357 120.125 15.4412 119.696 15.2941L119.047 17.1859ZM119.491 17.2C119.491 16.9451 119.646 16.854 119.565 16.9192C119.488 16.9822 119.305 17.0917 118.953 17.2247L119.661 19.0953C120.099 18.9297 120.508 18.7298 120.825 18.4728C121.139 18.218 121.491 17.7963 121.491 17.2H119.491ZM118.983 17.2141C118.139 17.5034 117.369 17.9568 116.959 18.7021L118.711 19.6659C118.771 19.5579 118.982 19.3286 119.632 19.1059L118.983 17.2141ZM116.941 18.7368C116.442 19.7351 116.259 21.3254 116.259 23.312H118.259C118.259 21.3306 118.461 20.1689 118.73 19.6312L116.941 18.7368ZM116.259 23.312C116.259 24.3357 116.302 25.1911 116.397 25.8602C116.445 26.1949 116.508 26.505 116.594 26.7769C116.677 27.0376 116.801 27.3286 117.006 27.5721L118.536 26.2839C118.571 26.3247 118.545 26.3131 118.5 26.1711C118.459 26.0404 118.415 25.8478 118.377 25.5798C118.301 25.0436 118.259 24.2936 118.259 23.312H116.259ZM116.976 27.534C117.53 28.2608 118.369 28.6215 119.298 28.7505L119.573 26.7695C118.966 26.6852 118.696 26.4912 118.567 26.322L116.976 27.534ZM119.325 28.7539C119.467 28.7697 119.566 28.7923 119.631 28.8133C119.696 28.8344 119.711 28.8489 119.699 28.84C119.683 28.8279 119.647 28.7942 119.618 28.7363C119.59 28.6791 119.587 28.6346 119.587 28.624H121.587C121.587 28.0721 121.35 27.5777 120.899 27.24C120.502 26.9422 120.01 26.8177 119.546 26.7661L119.325 28.7539ZM119.587 28.624C119.587 28.6098 119.59 28.5925 119.595 28.5762C119.6 28.5606 119.605 28.5559 119.6 28.5625C119.588 28.5798 119.535 28.643 119.389 28.7337L120.442 30.4343C121.039 30.0644 121.587 29.4747 121.587 28.624H119.587ZM119.401 28.7265C119.147 28.8789 118.838 28.968 118.443 28.968V30.968C119.158 30.968 119.83 30.8011 120.43 30.4415L119.401 28.7265ZM126.512 29.712L126.096 30.6215L126.107 30.6264L126.118 30.6311L126.512 29.712ZM124.624 28.336L123.865 28.9868L123.871 28.9936L123.877 29.0004L124.624 28.336ZM123.44 26.288L122.489 26.5965L122.494 26.6122L122.499 26.6276L123.44 26.288ZM124.88 18.288L124.161 17.5934L124.16 17.5939L124.88 18.288ZM126.96 16.848L126.572 15.9263L126.563 15.9301L126.96 16.848ZM133.104 17.488L133.794 16.7646L133.784 16.7545L133.773 16.7447L133.104 17.488ZM134.16 19.12L133.221 19.4643L133.228 19.4835L133.236 19.5024L134.16 19.12ZM134.352 22.128L133.424 21.7566V21.7566L134.352 22.128ZM133.648 22.896L133.158 22.0244L133.146 22.0313L133.133 22.0385L133.648 22.896ZM132.336 23.344L132.488 24.3324L132.507 24.3295L132.525 24.326L132.336 23.344ZM130.224 23.632L130.1 22.6397L130.224 23.632ZM128.24 23.888L128.335 24.8835L128.355 24.8816L128.375 24.8788L128.24 23.888ZM127.408 23.984L127.212 23.0034L127.179 23.0099L127.147 23.0186L127.408 23.984ZM127.28 27.184L127.868 26.3753L127.28 27.184ZM132.048 27.568L131.796 26.6004L131.787 26.6025L131.779 26.6048L132.048 27.568ZM133.168 27.28L133.411 28.2501L133.448 28.2408L133.484 28.2287L133.168 27.28ZM133.872 28.656L133.192 27.9232L133.178 27.9358L133.165 27.9489L133.872 28.656ZM132.784 29.424L133.214 30.3269L133.231 30.3187L133.248 30.3098L132.784 29.424ZM131.28 29.968L131.54 30.9336L131.28 29.968ZM130.704 21.904L130.594 20.9101L130.704 21.904ZM131.248 21.776L131.599 22.7123L131.627 22.7019L131.654 22.6898L131.248 21.776ZM131.184 18.768L130.51 19.5065L130.519 19.5147L130.528 19.5226L131.184 18.768ZM127.024 19.152L126.293 18.4697L126.28 18.4831L126.268 18.4971L127.024 19.152ZM126.352 20.24L127.266 20.6461L127.27 20.6371L127.274 20.6281L126.352 20.24ZM127.312 22.192V23.192H127.548L127.759 23.0864L127.312 22.192ZM127.376 22.16L127.304 21.1626L127.106 21.1769L126.929 21.2656L127.376 22.16ZM129.584 22L129.656 22.9974L129.854 22.9831L130.031 22.8944L129.584 22ZM129.904 21.936V20.936H129.742L129.588 20.9873L129.904 21.936ZM129.648 29.192H129.04V31.192H129.648V29.192ZM129.04 29.192C128.216 29.192 127.51 29.0519 126.906 28.7929L126.118 30.6311C127.007 31.0121 127.987 31.192 129.04 31.192V29.192ZM126.928 28.8025C126.299 28.5151 125.785 28.1371 125.371 27.6716L123.877 29.0004C124.487 29.6869 125.232 30.2262 126.096 30.6215L126.928 28.8025ZM125.383 27.6852C124.953 27.1832 124.618 26.6069 124.381 25.9484L122.499 26.6276C122.816 27.5051 123.271 28.2941 123.865 28.9868L125.383 27.6852ZM124.391 25.9795C124.171 25.2997 124.056 24.5515 124.056 23.728H122.056C122.056 24.7391 122.197 25.6976 122.489 26.5965L124.391 25.9795ZM124.056 23.728V23.12H122.056V23.728H124.056ZM124.056 23.12C124.056 22.2732 124.197 21.4999 124.469 20.791L122.603 20.073C122.235 21.0281 122.056 22.0468 122.056 23.12H124.056ZM124.469 20.791C124.745 20.0745 125.123 19.4762 125.6 18.9821L124.16 17.5939C123.485 18.2945 122.967 19.1255 122.603 20.073L124.469 20.791ZM125.599 18.9826C126.105 18.4589 126.689 18.0548 127.357 17.7659L126.563 15.9301C125.653 16.3239 124.85 16.8798 124.161 17.5934L125.599 18.9826ZM127.348 17.7696C128.025 17.4846 128.777 17.336 129.616 17.336V15.336C128.535 15.336 127.516 15.5288 126.572 15.9264L127.348 17.7696ZM129.616 17.336H129.904V15.336H129.616V17.336ZM129.904 17.336C130.968 17.336 131.787 17.6479 132.435 18.2313L133.773 16.7447C132.714 15.7921 131.4 15.336 129.904 15.336V17.336ZM132.414 18.2114C132.767 18.5483 133.036 18.9605 133.221 19.4643L135.099 18.7757C134.814 17.9995 134.38 17.3237 133.794 16.7646L132.414 18.2114ZM133.236 19.5024C133.456 20.0353 133.544 20.4688 133.544 20.816H135.544C135.544 20.1392 135.376 19.4421 135.084 18.7376L133.236 19.5024ZM133.544 20.816C133.544 21.3116 133.484 21.6048 133.424 21.7566L135.28 22.4994C135.476 22.0112 135.544 21.4298 135.544 20.816H133.544ZM133.424 21.7566C133.392 21.8362 133.329 21.9282 133.158 22.0244L134.138 23.7676C134.65 23.4798 135.056 23.0598 135.28 22.4994L133.424 21.7566ZM133.133 22.0385C132.952 22.1476 132.64 22.2673 132.147 22.362L132.525 24.326C133.142 24.2074 133.704 24.0284 134.162 23.7535L133.133 22.0385ZM132.184 22.3556C131.642 22.439 130.948 22.5337 130.1 22.6397L130.348 24.6243C131.206 24.517 131.921 24.4197 132.488 24.3324L132.184 22.3556ZM130.1 22.6397C129.245 22.7465 128.58 22.8324 128.105 22.8972L128.375 24.8788C128.839 24.8156 129.496 24.7308 130.348 24.6243L130.1 22.6397ZM128.145 22.8925C127.717 22.9332 127.381 22.9697 127.212 23.0034L127.604 24.9646C127.602 24.965 127.617 24.9622 127.658 24.9565C127.695 24.9512 127.746 24.9449 127.811 24.9374C127.94 24.9225 128.114 24.9045 128.335 24.8835L128.145 22.8925ZM127.147 23.0186C126.672 23.1471 126.205 23.3475 125.843 23.6797C125.451 24.0404 125.224 24.5216 125.224 25.072H127.224C127.224 25.0761 127.222 25.0988 127.21 25.1273C127.197 25.1547 127.186 25.1623 127.197 25.1523C127.23 25.1218 127.355 25.0342 127.669 24.9494L127.147 23.0186ZM125.224 25.072C125.224 26.2769 125.72 27.2861 126.692 27.9927L127.868 26.3753C127.432 26.0579 127.224 25.6591 127.224 25.072H125.224ZM126.692 27.9927C127.609 28.6594 128.738 28.952 130 28.952V26.952C129.044 26.952 128.359 26.7326 127.868 26.3753L126.692 27.9927ZM130 28.952C130.593 28.952 131.387 28.7906 132.317 28.5312L131.779 26.6048C130.874 26.8574 130.303 26.952 130 26.952V28.952ZM132.3 28.5356C132.79 28.4078 133.16 28.3129 133.411 28.2501L132.925 26.3099C132.664 26.3751 132.287 26.4722 131.796 26.6004L132.3 28.5356ZM133.484 28.2287C133.607 28.1878 133.692 28.161 133.747 28.1455C133.774 28.1376 133.784 28.1355 133.781 28.1362C133.779 28.1366 133.767 28.1393 133.747 28.1424C133.737 28.144 133.721 28.1461 133.702 28.148C133.683 28.1498 133.653 28.152 133.616 28.152V26.152C133.486 26.152 133.374 26.1777 133.347 26.1838C133.296 26.1952 133.244 26.2091 133.197 26.2225C133.102 26.2496 132.985 26.2869 132.852 26.3313L133.484 28.2287ZM133.616 28.152C133.708 28.152 133.591 28.1747 133.454 28.0434C133.307 27.9037 133.32 27.7663 133.32 27.824H135.32C135.32 27.4337 135.215 26.9603 134.834 26.5966C134.462 26.2413 133.993 26.152 133.616 26.152V28.152ZM133.32 27.824C133.32 27.7758 133.335 27.7529 133.328 27.7659C133.318 27.7843 133.283 27.8384 133.192 27.9232L134.552 29.3888C134.958 29.0118 135.32 28.4882 135.32 27.824H133.32ZM133.165 27.9489C132.976 28.1375 132.703 28.3376 132.32 28.5382L133.248 30.3098C133.761 30.0411 134.213 29.7292 134.579 29.3631L133.165 27.9489ZM132.354 28.5211C131.968 28.7048 131.525 28.8664 131.02 29.0024L131.54 30.9336C132.144 30.7709 132.704 30.5699 133.214 30.3269L132.354 28.5211ZM131.02 29.0024C130.544 29.1306 130.087 29.192 129.648 29.192V31.192C130.276 31.192 130.907 31.104 131.54 30.9336L131.02 29.0024ZM130.192 22.936C130.387 22.936 130.596 22.9222 130.814 22.8979L130.594 20.9101C130.428 20.9285 130.296 20.936 130.192 20.936V22.936ZM130.814 22.8979C131.084 22.868 131.346 22.8071 131.599 22.7123L130.897 20.8397C130.808 20.8729 130.708 20.8974 130.594 20.9101L130.814 22.8979ZM131.654 22.6898C131.941 22.5625 132.208 22.3906 132.435 22.1631L131.021 20.7489C130.992 20.7774 130.939 20.8188 130.842 20.8622L131.654 22.6898ZM132.435 22.1631C132.763 21.8353 132.92 21.4154 132.92 20.976H130.92C130.92 20.9593 130.923 20.9195 130.944 20.8686C130.964 20.8166 130.994 20.7757 131.021 20.7489L132.435 22.1631ZM132.92 20.976V20.4H130.92V20.976H132.92ZM132.92 20.4C132.92 19.4549 132.554 18.6337 131.84 18.0134L130.528 19.5226C130.796 19.7557 130.92 20.0224 130.92 20.4H132.92ZM131.858 18.0295C131.214 17.4409 130.448 17.096 129.584 17.096V19.096C129.872 19.096 130.173 19.1991 130.51 19.5065L131.858 18.0295ZM129.584 17.096H129.232V19.096H129.584V17.096ZM129.232 17.096C128.662 17.096 128.115 17.2324 127.601 17.4896L128.495 19.2784C128.749 19.1516 128.991 19.096 129.232 19.096V17.096ZM127.601 17.4896C127.108 17.7359 126.671 18.0644 126.293 18.4697L127.755 19.8343C127.974 19.5996 128.22 19.4161 128.495 19.2784L127.601 17.4896ZM126.268 18.4971C125.919 18.8998 125.64 19.3532 125.43 19.8519L127.274 20.6281C127.405 20.3161 127.574 20.0442 127.78 19.8069L126.268 18.4971ZM125.438 19.8339C125.21 20.3477 125.096 20.8916 125.096 21.456H127.096C127.096 21.167 127.153 20.9003 127.266 20.6461L125.438 19.8339ZM125.096 21.456V21.712H127.096V21.456H125.096ZM125.096 21.712C125.096 21.9534 125.154 22.2116 125.303 22.4503C125.45 22.686 125.649 22.8472 125.848 22.9535C126.215 23.15 126.637 23.192 126.992 23.192V21.192C126.884 21.192 126.815 21.1846 126.776 21.1776C126.734 21.1702 126.748 21.1671 126.792 21.1905C126.841 21.2168 126.929 21.278 127.001 21.3937C127.075 21.5124 127.096 21.6306 127.096 21.712H125.096ZM126.992 23.192H127.312V21.192H126.992V23.192ZM127.759 23.0864L127.823 23.0544L126.929 21.2656L126.865 21.2976L127.759 23.0864ZM127.448 23.1574L129.656 22.9974L129.512 21.0026L127.304 21.1626L127.448 23.1574ZM130.031 22.8944C129.952 22.9342 129.842 22.968 129.712 22.968V20.968C129.497 20.968 129.302 21.0231 129.137 21.1056L130.031 22.8944ZM129.712 22.968C129.889 22.968 130.06 22.9382 130.22 22.8847L129.588 20.9873C129.62 20.9765 129.663 20.968 129.712 20.968V22.968ZM129.904 22.936H130.192V20.936H129.904V22.936ZM145.118 16.304L144.908 15.3262L145.118 16.304ZM145.79 15.92L145.042 15.2556L145.021 15.2802L145 15.3061L145.79 15.92ZM146.11 15.088L145.123 14.9236L145.119 14.9473L145.117 14.9712L146.11 15.088ZM146.174 13.008L145.179 13.1075L145.18 13.1184L146.174 13.008ZM146.078 12.4L147.054 12.1831L147.051 12.171L146.078 12.4ZM146.398 10.576L147.078 11.3088L147.08 11.3071L146.398 10.576ZM149.278 11.12L148.291 11.2792L148.293 11.2977L148.297 11.3161L149.278 11.12ZM149.406 18.832L150.406 18.8512L150.406 18.8416V18.832H149.406ZM149.374 20.496L148.374 20.4768L148.374 20.4864V20.496H149.374ZM149.374 22.8H148.374V22.8128L148.374 22.8256L149.374 22.8ZM149.406 24.048H150.406V24.0352L150.405 24.0224L149.406 24.048ZM149.406 24.688H148.406V24.7434L148.412 24.7984L149.406 24.688ZM149.438 24.976H150.438V24.9206L150.432 24.8656L149.438 24.976ZM149.662 27.632L148.692 27.8745L148.701 27.9118L148.713 27.9482L149.662 27.632ZM149.534 29.264L148.901 28.49L148.882 28.505L148.865 28.5207L149.534 29.264ZM147.198 29.36L147.472 28.3984L147.461 28.3952L147.198 29.36ZM146.59 29.232L146.448 30.2219L146.457 30.2232L146.466 30.2243L146.59 29.232ZM143.71 29.904L143.906 30.8846L143.929 30.8799L143.952 30.8741L143.71 29.904ZM138.814 28.432L138.033 29.0567L138.039 29.0644L138.814 28.432ZM137.95 20.816L138.901 21.1251L138.903 21.1182L137.95 20.816ZM139.166 18.544L138.4 17.9014L138.398 17.9038L139.166 18.544ZM141.182 16.976L141.619 17.8752L141.182 16.976ZM145.694 18.832L144.91 19.4527L144.916 19.4609L144.923 19.4689L145.694 18.832ZM143.582 18.064V17.064H143.459L143.339 17.0939L143.582 18.064ZM143.454 18.096V19.096H143.577L143.696 19.0661L143.454 18.096ZM140.99 27.088L140.179 27.6735L140.184 27.6808L140.19 27.688L140.99 27.088ZM144.766 27.856L144.232 27.0105L144.221 27.0171L144.211 27.0239L144.766 27.856ZM145.694 26.864L144.828 26.363L144.818 26.3804L144.809 26.3983L145.694 26.864ZM146.174 25.488L147.16 25.6524L147.161 25.646L146.174 25.488ZM146.302 23.92L145.302 23.883L145.302 23.9015V23.92H146.302ZM146.334 23.056L147.333 23.093L147.334 23.0745V23.056H146.334ZM146.334 21.488H147.334V21.4496L147.331 21.4113L146.334 21.488ZM146.302 21.072H145.302V21.1104L145.305 21.1487L146.302 21.072ZM143.902 17.4C144.444 17.4 144.929 17.3671 145.327 17.2818L144.908 15.3262C144.709 15.3689 144.384 15.4 143.902 15.4V17.4ZM145.327 17.2818C145.796 17.1815 146.251 16.9553 146.579 16.5339L145 15.3061C145.011 15.2928 145.019 15.2886 145.014 15.2918C145.006 15.2963 144.975 15.3119 144.908 15.3262L145.327 17.2818ZM146.537 16.5844C146.89 16.1872 147.046 15.6884 147.103 15.2048L145.117 14.9712C145.088 15.213 145.031 15.2688 145.042 15.2556L146.537 16.5844ZM147.096 15.2524C147.173 14.792 147.206 14.2297 147.206 13.584H145.206C145.206 14.1756 145.175 14.616 145.123 14.9236L147.096 15.2524ZM147.206 13.584C147.206 13.3549 147.193 13.126 147.168 12.8976L145.18 13.1184C145.197 13.274 145.206 13.4291 145.206 13.584H147.206ZM147.169 12.9085C147.144 12.6592 147.106 12.4171 147.054 12.1831L145.102 12.6169C145.135 12.7669 145.161 12.9302 145.179 13.1075L147.169 12.9085ZM147.051 12.171C146.968 11.8166 146.95 11.6464 146.95 11.6H144.95C144.95 11.8949 145.017 12.2581 145.104 12.629L147.051 12.171ZM146.95 11.6C146.95 11.4745 146.982 11.3981 147.078 11.3088L145.717 9.84321C145.216 10.3086 144.95 10.9149 144.95 11.6H146.95ZM147.08 11.3071C147.156 11.236 147.336 11.128 147.774 11.128V9.128C147.017 9.128 146.279 9.31869 145.715 9.84494L147.08 11.3071ZM147.774 11.128H148.03V9.128H147.774V11.128ZM148.03 11.128C148.248 11.128 148.287 11.1777 148.264 11.1588C148.253 11.1505 148.251 11.1439 148.255 11.1521C148.261 11.1635 148.278 11.2008 148.291 11.2792L150.265 10.9608C150.183 10.4506 149.958 9.95103 149.508 9.59317C149.068 9.2436 148.537 9.128 148.03 9.128V11.128ZM148.297 11.3161C148.295 11.3061 148.302 11.3414 148.311 11.4578C148.319 11.5622 148.327 11.7033 148.335 11.8847C148.35 12.2467 148.363 12.7454 148.374 13.3846C148.395 14.6616 148.406 16.4765 148.406 18.832H150.406C150.406 16.4729 150.395 14.645 150.374 13.3514C150.363 12.7052 150.349 12.1867 150.333 11.7993C150.318 11.4457 150.298 11.1217 150.258 10.9239L148.297 11.3161ZM148.406 18.8128L148.374 20.4768L150.374 20.5152L150.406 18.8512L148.406 18.8128ZM148.374 20.496V22.8H150.374V20.496H148.374ZM148.374 22.8256L148.406 24.0736L150.405 24.0224L150.373 22.7744L148.374 22.8256ZM148.406 24.048V24.688H150.406V24.048H148.406ZM148.412 24.7984L148.444 25.0864L150.432 24.8656L150.4 24.5776L148.412 24.7984ZM148.438 24.976V26.064H150.438V24.976H148.438ZM148.438 26.064C148.438 26.3927 148.463 26.7145 148.515 27.0284L150.488 26.6996C150.455 26.5015 150.438 26.29 150.438 26.064H148.438ZM148.515 27.0284C148.562 27.3111 148.621 27.5931 148.692 27.8745L150.632 27.3895C150.574 27.1589 150.526 26.9289 150.488 26.6996L148.515 27.0284ZM148.713 27.9482C148.852 28.3651 148.886 28.5948 148.886 28.688H150.886C150.886 28.2692 150.77 27.7949 150.61 27.3158L148.713 27.9482ZM148.886 28.688C148.886 28.5704 148.924 28.4882 148.944 28.4545C148.961 28.4277 148.959 28.4421 148.901 28.49L150.167 30.038C150.499 29.766 150.886 29.3186 150.886 28.688H148.886ZM148.865 28.5207C148.89 28.4977 148.896 28.5054 148.847 28.5197C148.795 28.5348 148.698 28.552 148.542 28.552V30.552C149.104 30.552 149.727 30.4358 150.203 30.0073L148.865 28.5207ZM148.542 28.552C148.19 28.552 147.835 28.502 147.472 28.3985L146.923 30.3215C147.457 30.474 147.997 30.552 148.542 30.552V28.552ZM147.461 28.3952C147.198 28.3234 146.946 28.2688 146.714 28.2397L146.466 30.2243C146.575 30.2379 146.729 30.2686 146.935 30.3248L147.461 28.3952ZM146.731 28.2421C146.553 28.2165 146.375 28.2 146.206 28.2V30.2C146.25 30.2 146.328 30.2048 146.448 30.2219L146.731 28.2421ZM146.206 28.2C145.966 28.2 145.68 28.272 145.463 28.3312C145.202 28.4022 144.873 28.5047 144.482 28.6353L145.114 30.5327C145.49 30.4073 145.78 30.3178 145.989 30.2608C146.094 30.2322 146.168 30.2145 146.218 30.2046C146.28 30.1921 146.264 30.2 146.206 30.2V28.2ZM144.482 28.6353C144.118 28.7564 143.78 28.8556 143.467 28.9339L143.952 30.8741C144.322 30.7818 144.709 30.6676 145.114 30.5327L144.482 28.6353ZM143.514 28.9234C143.252 28.9757 143.009 29 142.782 29V31C143.152 31 143.527 30.9603 143.906 30.8846L143.514 28.9234ZM142.782 29H142.462V31H142.782V29ZM142.462 29C141.126 29 140.219 28.5715 139.588 27.7996L138.039 29.0644C139.116 30.3831 140.64 31 142.462 31V29ZM139.595 27.8073C138.917 26.9606 138.534 25.8023 138.534 24.24H136.534C136.534 26.1337 137.004 27.7701 138.033 29.0567L139.595 27.8073ZM138.534 24.24V23.536H136.534V24.24H138.534ZM138.534 23.536C138.534 22.6736 138.658 21.8718 138.901 21.1251L136.999 20.5069C136.687 21.4668 136.534 22.4784 136.534 23.536H138.534ZM138.903 21.1182C139.145 20.3546 139.492 19.7149 139.934 19.1842L138.398 17.9038C137.773 18.6531 137.309 19.5281 136.997 20.5138L138.903 21.1182ZM139.932 19.1866C140.395 18.6348 140.954 18.1988 141.619 17.8752L140.744 16.0768C139.831 16.5212 139.046 17.1305 138.4 17.9014L139.932 19.1866ZM141.619 17.8752C142.251 17.5677 143.004 17.4 143.902 17.4V15.4C142.751 15.4 141.691 15.6163 140.744 16.0768L141.619 17.8752ZM147.302 20.784C147.302 19.8059 147.055 18.9094 146.465 18.1951L144.923 19.4689C145.143 19.7359 145.302 20.1408 145.302 20.784H147.302ZM146.478 18.2113C145.814 17.3734 144.802 17.064 143.71 17.064V19.064C144.452 19.064 144.762 19.2666 144.91 19.4527L146.478 18.2113ZM143.71 17.064H143.582V19.064H143.71V17.064ZM143.339 17.0939L143.211 17.1259L143.696 19.0661L143.824 19.0341L143.339 17.0939ZM143.454 17.096C142.117 17.096 141.039 17.7476 140.263 18.8718L141.909 20.0082C142.37 19.3404 142.87 19.096 143.454 19.096V17.096ZM140.263 18.8718C139.486 19.9964 139.158 21.4715 139.158 23.184H141.158C141.158 21.6965 141.448 20.6756 141.909 20.0082L140.263 18.8718ZM139.158 23.184V23.792H141.158V23.184H139.158ZM139.158 23.792C139.158 25.3306 139.453 26.6683 140.179 27.6735L141.8 26.5025C141.417 25.9717 141.158 25.1121 141.158 23.792H139.158ZM140.19 27.688C140.922 28.6637 141.904 29.24 143.102 29.24V27.24C142.636 27.24 142.21 27.0483 141.79 26.488L140.19 27.688ZM143.102 29.24H143.23V27.24H143.102V29.24ZM143.23 29.24C143.993 29.24 144.72 29.0884 145.32 28.6881L144.211 27.0239C144.044 27.1356 143.746 27.24 143.23 27.24V29.24ZM145.3 28.7015C145.846 28.3564 146.28 27.8976 146.579 27.3297L144.809 26.3983C144.681 26.6411 144.496 26.8436 144.232 27.0105L145.3 28.7015ZM146.559 27.365C146.86 26.845 147.057 26.2702 147.16 25.6524L145.187 25.3236C145.12 25.7298 144.997 26.0723 144.828 26.363L146.559 27.365ZM147.161 25.646C147.254 25.0633 147.302 24.4877 147.302 23.92H145.302C145.302 24.3763 145.264 24.8461 145.186 25.33L147.161 25.646ZM147.301 23.957L147.333 23.093L145.334 23.019L145.302 23.883L147.301 23.957ZM147.334 23.056V21.488H145.334V23.056H147.334ZM147.331 21.4113L147.299 20.9953L145.305 21.1487L145.337 21.5647L147.331 21.4113ZM147.302 21.072V20.784H145.302V21.072H147.302Z" fill="#F0F2F2"/>
</g>
<defs>
<filter id="filter0_d_129_2" x="8.72198" y="10.128" width="145.164" height="28.128" filterUnits="userSpaceOnUse" color-interpolation-filters="sRGB">
<feFlood flood-opacity="0" result="BackgroundImageFix"/>
<feColorMatrix in="SourceAlpha" type="matrix" values="0 0 0 0 0 0 0 0 0 0 0 0 0 0 0 0 0 0 127 0" result="hardAlpha"/>
<feOffset dy="4"/>
<feGaussianBlur stdDeviation="2"/>
<feComposite in2="hardAlpha" operator="out"/>
<feColorMatrix type="matrix" values="0 0 0 0 0 0 0 0 0 0 0 0 0 0 0 0 0 0 0.25 0"/>
<feBlend mode="normal" in2="BackgroundImageFix" result="effect1_dropShadow_129_2"/>
<feBlend mode="normal" in="SourceGraphic" in2="effect1_dropShadow_129_2" result="shape"/>
</filter>
</defs>
</svg>

